<?xml version="1.0" encoding="UTF-8"?>
<svg id="Layer_1" data-name="Layer 1" xmlns="http://www.w3.org/2000/svg" viewBox="0 0 2753.8 871.7">
  <defs>
    <style>
      .cls-1 {
        fill: #181112;
      }
    </style>
  </defs>
  <path class="cls-1" d="M64.7,155.3c-.3.3-.8.6-.8.8.1.6.5,1.1.8,1.6.3-.3.8-.6.8-.8-.1-.6-.5-1.1-.8-1.7M39.1,166.8c.3.3.6.6.9.9.3-.5.6-1.1.8-1.7,0-.2-.5-.5-.8-.8-.3.5-.6,1.1-.9,1.6M8.3,233.9c.3-.3.6-.6.9-.9-.5-.3-1.1-.6-1.7-.8-.2,0-.5.5-.8.8.5.3,1.1.6,1.6.9M1648.8,275.3c-.3-.5-.6-1-.9-1.6-.3.3-.8.6-.8.8.1.6.5,1.1.8,1.7.3-.3.5-.6.9-.9M6.4,277c-.3-.3-.6-.6-.9-.9-.3.5-.6,1.1-.8,1.7,0,.2.5.5.8.8.3-.5.6-1.1.9-1.6M73.7,309.1c.3.5.6,1.1.9,1.6.3-.3.8-.6.8-.8-.1-.6-.5-1.1-.8-1.7-.3.3-.5.5-.9.9M269.4,332.9c-.3.3-.8.6-.8.8.1.6.5,1.1.8,1.7.3-.3.8-.6.8-.8-.1-.6-.5-1.1-.8-1.6M1671.7,590.9c.3.3.6.6.9.9.3-.5.6-1.1.8-1.7,0-.2-.5-.5-.8-.8-.3.5-.6,1.1-.9,1.6M1636.8,258.3c-.4-.6-.8-1.3-1.2-1.9-1.1,1.4-2.1,2.8-3.2,4.2.7.2,1.4.6,2.1.7,2.3.2,2.3-1.4,2.4-3M1364.3,434c1.9-1.8,1.1-3.5,1.2-5,.3-2.3-1.4-2.6-3-2.4-2.2.3-2.4,2.3-1.7,3.5.7,1.5,2.3,2.6,3.6,3.8M495.7,510.6c2.6-3,8.6-12.8,9.2-14.4.3-1.1.8-2.2,1.4-3.1,4.3-6,7.9-12.8,13.2-17.8,6.6-6.3,14-12,23.5-14.2,10.4-2.4,10.3-2.8,16.1-11,4-5.6,3.7-8-2.3-11-8.4-4.2-16.9-8.3-23.9-14.9-1.5,2-3.1,3.1-3.3,4.5-.4,3.6,1.2,8.2-.5,10.8-1.8,2.9-3.9,5.3-5.4,8.7-3.9,8.4-7.8,17.2-16.7,22.3-2.9,1.7-6.3,4.2-7,8-2.1,10.5-7.3,20.7-4.3,32.3M684.9,566.1c0-4.3-1.6-9.6.3-12.3,3.5-4.8,1.1-9.5,2.1-14,1-4.2-.8-8.4,1.5-13,2-3.9,2-9.9.7-14.3-2.6-8.7-2.1-17.4-2.2-26.2,0-4.5.8-9.2-.2-13.5-1.2-5-.7-12.7-6.5-13.8-5.2-1-7.7-4-10.8-7-8.3-8-16.3-16.3-24.5-24.3-1.6-1.6-2.7-4.3-6.6-3.6-5,11-5.3,22.5-.1,33.7,4.3,9.3,9.5,18.3,14.8,27.1,2.6,4.3,3.2,9.2.8,12.3-3.3,4.2-6.3,9.5-12.6,10.7-11.3,2-14.3,9.2-8.8,19,1,1.7,2,4.8,3,6,2.9,3.3,2,5.9.4,9,7.4,8,9.4,17.7,9.2,28.3,0,4.6,4.7,8.8,9.1,9.3,3.1.3,5.1-1.6,7.7-2.4,2.2-.7,5.2.3,6.3-2.4,1.6-3.8,5.5.2,5.9-1.2,1.5-5.1,6.1-5,10.4-7.4M1105.4,586.9c2.9-3.3,5.3-5.9,6.6-10.1,1.5-4.8,2.6-9.4,1.7-13.9-1-5.3,3-8.9,2.8-13.8-.4-10.7.2-21.4-.2-32-.4-10.8,1.7-21.6-2.1-32.4-1.6-4.4-.6-9.8-.2-14.7.4-5.3-2.3-9.9-3-15-1.5-11-3.3-23-16.7-27-3.6-1.1-6.1-3.5-8.6-6.1-1.4-1.5-2.6-2.9-5.1-2.7-9.6.7-18.8-4.1-28.6-2.4-1.2.2-2.9.5-3.6-.2-4.2-4.3-8.9-1.6-12.7-2-4.9,11.3-3.1,22.3-3.3,33.1-.2,7.8-.3,15.6,0,23.4.2,4.6-2.1,9.7,2.2,13.9.8.8.7,3.9-.2,4.6-3.6,3-1.7,6.9-2.2,10.3-1.6,12.6,3.7,24.6,2.7,37.2-.5,6.6-2,13.6,2.1,20,.9,1.3-.4,3.6-1.1,5.6-1,2.9-4.3,4.8-3.7,8.3,3.9.6,5.9,3.7,8.6,6.1,2.3,2.1,4.3,4.2,7.6,5.5,4.4,1.7,8.5,5.1,8.4,10.9,0,3.1,2.3,5.5,3.8,5.6,3.8.2,4.8,3.9,7.7,4.9,5.5-4.5,5.9-11.6,8.1-17.6,1.2-3.3,2-5.3,5.3-6.9,9.8-4.8,10.5-5,18.4,2.7,1.5,1.4,2.9,2.9,4.9,4.9M252.4,466.3c-8.4,5.3-11.1,15.3-19.8,19.3-1.1.5-1.8,1.7-1.5,3,.7,2.8-.9,4.8-2.9,6.2-3.5,2.3-5.4,6.3-6.7,9.6-3.9,9.9-13.1,15.6-17.7,24.7-5.6,1.1-7.7,5.4-9,10,6.4,3.4,15.4,1.1,19.3,9.7.9,1.9,1.8,0,2.6-.5,2-1.5,4-1.7,4.5,1,.6,3.7,4,4.9,5.8,7.5,6.4-3.7,7,3.7,10.4,5.7,2.7,1.6,4.8,6.4,7.1,6.4,4.7,0,2.9,6.9,7.5,5.6,5.3,6.7,13.5,10.1,19,16.5,1.5,1.7,2.1,5.1,3.7,5.5,7.9,2,12.5,8.3,17.8,13.5,1.3,1.3,3.1,1,4.3,1.6,5.2,3,10.8,2.1,16.3,2.4,1.8,0,4.8,5,4.6-1.4,0-.3.5-.6.8-.9,2.6-1.9,4.1,3,5.8,1.3,1.4-1.4.7-4.9,4.4-4,3.1.8,4.9-1.7,5.8-3.6,3.8-8.4,9.6-15.5,13.2-24.1,2.5-6,.6-15.1,9.3-18.1-.9-6.6,1-12.4,4.9-17.7-1.9-4.7,3-8.3,2.3-12.5-.6-4.3,3.7-6.8,2.8-11.4-.9-4.3-1.6-9.7.2-13.3,2.3-4.6.2-7.8-.3-11.7-.4-3.5.1-6.7,2-10.3,1.3-2.3-3-6-2.2-9.9,1.6-7.7-.9-15.1-2.6-22.3-2-8.1-5.7-15.7-7.6-24-.7-3-5.8-4.7-4.5-9.2-3.7-1.8,1.2-5.7-2.2-8.4-1.3-1,2.7-5.7-.3-8.7,4-5.5.4-6.5-4.1-6.9-1.6-.1-3.7,0-3.3-2.3.9-5.2-3.1-8-6.2-9.6-8.1-4.2-15-10.5-24.2-13.1-3.4-1-7.1-3.1-10.1-1.9-6.8,2.7-14,2-20.4,2.3-2.5,4.7,2.7,8.1,1.3,10.6-4.5,8.3-2.8,18.4-8.3,26.1-1,1.5-1.6,2.9-1.2,4.4,1.4,5.8-2.5,10.8-2.4,16.3,0,5.7-5.6,9.1-5.2,15.2.4,5.6-6.8,8.4-7.2,14.2-.2,3.1-4.3.9-4.5,2.8-.3,2.8,3.6.5,4.2,2.6.3,1,.1,2.7-.5,3.2-2.1,1.7-3.6.1-5.1-1.6M255.8,207.1c-2.4.7-5.7-1.8-7.4,1.8.2.9.1,1.8.5,2.4,4.8,6.2,11,11.6,9.5,20.7-.1.9,1,2,1.7,2.9,3.4,4.4,3.3,9.5,3.1,14.6-.2,5.4,1,10.3,4.9,14.4v8.4c2,2.4,4.5-4.6,4.9,1.6,0,.8.3,1.8,0,2.4-4.7,8.2-1.5,17.2-2.4,25.8,3.2,1.7.3,3.5.3,5.2,0,4-3.7,2.5-4.5,4.1-1,1.8,3,1.6,1,4.1-.4.5-2,1.2-2.4.6-.4-.7-1.5-.5-1.5.5,0,1.3,1.3,2,2.8,2.4,2.8,4.2,4.9,7.3,8.9,13.2-.2-6.7,5.1-9.8,4.9-14.1-.2-4.8,4.9-4.7,4.9-6.4.2-6.1,5.2-2.2,7.1-4.1,2.1-3-1.5-7.8,2.6-9.9,4.8-2.3,6.5-7.2,10.2-10.5,4.3-3.8,8.2-8,12.2-12.1,2.8-2.8,5.6-5.6,8.2-8.2-2.3-4.2-3.6-7.9-6.6-10.6-3.9-3.5-6.6-7.8-6.2-13.4.2-2.4-1.2-3.6-2.5-5.1-6-6.7-11.5-13.7-14.6-22.2-.7-2-.6-3.2-3.3-3.9-3.4-.8-4.8-3.8-4.4-7.6.2-1.5.5-3.1-1-4.5-4.8-4.2-8.7-9.4-14.3-13.5-3.5,4-6.4,7.3-9.3,10.5-2.9,3.1-6.4,5.8-7.4,10.2M93,591.8c2.7,0,5.7.5,5-3.9-.2-1.1,0-2.3-1.6-5.3,8,5.2,13.7,4.3,19.7,0,2.8-2,8.2-3.8,10.4-2.4,4.4,2.8,4.3-1.2,6-2.5.3-.2.1-1.6-.2-2.2-1.2-1.9-2,0-2.5.7-1,1.2-2.6,1.2-3.3.7-1.6-1.2-3.1-3.4-5.1-2.2-2.8,1.7-3.3-3.8-5.9-1.6-.1,2-.2,4-.4,6.7-6.6-1.8-11.4,2.5-17,4.6-4.2.8-2.4,5.5-4.9,8.5.4-1.1,0-1.4-1.2-1.1-1,.3-2.2.3-3.2.7-.8.3-.6,1.2.4,1.5,1.5.5,2.9.4,3.9-2.2M88.7,289.2c-.6.4-.5,1.2.5,1.5.3.1,3.2-2.6,2.9-4.4,0-1-1.2.7-1.4,1.2-.5,1-1.4,1.4-1.9,1.8M1533.2,515.4c.3,8-4.6,14.6-6.1,22.1-.1.7-1.4,1.6-1.2,1.9,3.4,5.9-.4,7.8-4.9,9.2-1.8,13.4,3.3,26.3,2.8,39.7-.2,6,5.6,11.5,10.6,15.7,2.2-1.1.1-4.2,3.1-4.9,4.7-1,7.2-4.4,8.4-9,6.1-.7,4.7-5.4,4.4-9-.3-2.9,1.9-4.2,2.6-6.4,3.6-11,5.9-22,5-33.7-.5-6.1,1.4-12.5.7-18.2-.7-6.5-.3-12.8-.7-19.2-.4-6.5,0-13.1,0-19.7s0-9,0-13.5c0-3.4,1.6-6.5.3-10.4-1.7-5.1,4-5.7,7.1-7.7-.8-.9-1.5-1.7-2.2-2.5.8-2.1,4,0,4.5-2.8-2.7-1.8-5.6-.5-8.3-.9-1.2-.8-1.5-1.9-1.3-3.1.9-8.7-2.3-17.8,2.5-26.1-3-4.2-2.5-9-2.5-13.8,0-23.4-.2-46.8.1-70.2.1-8.4-5.4-16.7-2.2-24.7,1.6-4-1-6.2-.4-9.2.2-1.2.2-2.4-1.1-3.2-7.3-4.8-10.8-13.1-17.9-18.4-8.2-6.1-15.6-13.6-19.5-23.7-1-2.5-1.1-4.4,0-7.4,4.4,3.4,7.1,8.7,13.8,8.5,4.4-5.7,10.2-.7,15.9,1.2,3.5,1.2,4.1-1,4.2-4.6,5,.4,10.1-1.7,14.8,1.6.9.6,1.3,1.1,1.8-.1,3.1-8.3,14.3-5.3,17.9-12.9.3-.5,1.3-1,2-1,10.6.7,13.6-8,19-14.4,2.9,1.2-.8,5.2,2.1,6.8,2-6.4,2-6.5,7.7-9.7,7.3-4.1,11.3-11.2,15.8-17.8,1.5-2.2,5.3-2.9,7-1,2,2.3,4.1,4.9,5.1,7.7.7,2,1,4.6-1.4,6.7-1.7,1.5-1.7,3.8,1.2,4.3,1.9.3,3,.8,2.8,2.8-.2,2.1.4,3.7,1.9,5.4,2.3,2.8,3.1-.1,4.5-.6.1,0,.9,1.2,1,1.9.4,2-1.3,2.8-2.4,3.9q-6.4,7.3,0,16.1c2.3,3.2,3.1,6.8,2.4,10.6-.2,1.2-1,2-4.2,3-.6,0,.6-1.2,1.8-2.4-.6-.4-1.1-1.2-1.7-1.3-1.5-.2-3.1,0-3.2,2-.1,1.2.3,2.1,3.2,1.6,2.6,2.8,8.3,1.2,9.3,6.4.2,2.8-3.7,3.8-5.5,6.3-1.2,1.7-3.5.7-5.1,2.4-2,2.1-1.3,3.1.4,4.4-.5.5-1.1,1.4-1.5,1.3-2.7-.3-5.6,1.2-8.3-1.2.2-1,.4-3,.8-3,7.9-1.2,2.7-7.9,2.9-8.1,2.2-1.8,1.2-4.1,1.1-6.3,0-.3-.5-.6-1.7,2.6-2.2,3.8-2,3.1-4.1,3.1-2-.9-1.6-2.7-2-3.6-.3-.8-1.2-.6-1.5.4-.5,1.5-.4,2.9,1.7,3.9.2,1.5,1.5,4-.3,4.4-3,.7-5.9,1-8.7,2.9-1.5,1-2.7-1.2-5.2-3.3,1.8,6.4-6.2,10.7-.6,16.9.5.6-1.8,3.7-2.7,5.7-2.7,6.1-3.2,12,1.6,18.1,2.3-4.5,4.5-8.5,9.1-10.2,3.4-1.2,5.6-3.4,4.8-7.1-.9-4.2,4.2-6.9,2.7-11.3-.3-.8,1.6-1.6,2.9-1.3,1.3.3,2.2.9,1.9,2.5-.4,2.3.4,4.6-.7,7.1-2.5,5.5-4.9,11.2-4.2,18.5-1.9-1.7-2.8-2.5-3.8-3.5-2,2.7.5,8.7-5.7,8.4,0,1.1,0,3.1.3,3.2,6.9,1.4,4,6.2,3.9,10.3-2.1.2-4,.4-6.3.7-.1,2.5,2.9,4.4,1.8,7.1-2.5.3-4.6-.1-6.6-3.3-.8,4.4-2.2,7.8,1,11.3,1.7,1.9.4,4.5.7,6.8-5.8,9.8-6.1,9.9-3.3,17.5,1.7,4.8-.8,10.4,3.2,14.7.9.9-.6,2.3-1.9,2.3-3,0-2.3,2.2-3.1,3.9-1.9,4.2,4.7,6.8,2.1,9.8-2.6,3.1-1.9,6-1.9,9.1,0,27.5,0,54.9,0,82.4,0,3.1-1.2,6.3,1.8,9.2,1.1,1,1.2,4.2.5,5.7-4.4,9.3-1.7,19.1-2.3,28.6-.4,6.5.4,13.2-.2,19.7-.4,4.4,1.2,8.5,3.5,10.8,4.4,4.3,6.5,10.1,11,14.1,3.5,3.1,6.8,5.8,11.7,7.4,4.9,1.7,8.3,7.6,12.8,12.1,2.8-2.3,8.5-2.7,3.8-8.5-3-3.7,2.6-5.1,2.3-8.4-.2-1.7,3.5-.5,5.7-1.1,3.8-2.1-2.5-8,4.3-8.8,0,0,0,.3,0,.4,0,.6.2.6.8.9,0,0,.5-.5-.3-1.5-.8-2.2-2-4.1-.2-5.2,1.5-.9,3.3-.6,4.1,1,4.9,9.9,13.6,17.8,14.6,29.6.2,2.5.7,3.5,3.4,3.7,2,.1,2.1,2.3,1.4,3.7-.7,1.3-2.5,2.1-2.2,4,1,5.6-3.2,4.7-6.1,4.3-1.5-.2-2.4-3.4-4.4-.5-.9,1.3-2.9,2.2-3.3,3.5-3.1,8.8-13.7,12.2-15.7,21.8-3.9,3.9-6.2,9.7-12.3,11.2-.7.2-1.7,1.1-1.7,1.7-.3,8-8.1,9.6-12.3,14.2-4.2,4.6-7.4,10.8-14.4,12.4-.5.1-.8,1.3-1.3,1.8-2.7,3.1-2.3,2.7-5-.2-4-4.4-6.3-10-10.8-14-4.1-3.7-9.3-5.4-13.9-8.3-13.9-8.7-26.4-18.7-37.5-30.7-1.1-1.2-1.7-2.8-3.5-6-4.9,10.8-13.5,14.9-18.1,22.8-4.9,1.2-.4,8.6-5.6,9.1-4.2.4-5.5,3.9-5.6,6.1-.5,6-4.6,9-8.1,12.7-2.7,2.9-6.2,5.1-5.6,10.2.2,1.2-2.4,4.2-6.4,3.7-1.4-7.9-7.3-13.3-13.2-18.4-9.3-8-13.8-19.6-22.6-28.4h.6c-.2-.6-.4-1.3-.7-1.9-.4-.6-1.2-.5-1.5.5-.1.3.7.9,1.6,1.4.6,2.7.5,5.5.6,8.3,0,5.1-1.1,4.8-5.6,4.7-1.5.2-1.8-1.4-1.8-3.1,3.7-.2,2.5-4.5,3.5-5,.5-.2.8-.9,1.1-1.4,0,0-.5-.5-1.5.3-4.4,1.3-2.8,4.2-3.2,6.1-3.7.2-2.3,2.6-2.7,4.5-.7.3-1.7.9-1.8,1.3-.3,1.5.8,1.7,2,1.6-.2,2.1,1.1,5.1-3,5-1.2,0-2.2.9-1.9,2.4-7,.2-12.5,1.8-16,9.2-1.2,2.6-2.4,7.3-7.2,8.1-5.6,1-8.2-2.8-11-6.1-6.6-7.6-16.4-10.9-23.6-17.9-2.6-2.5-6.6-4.4-9-7.4-2.4-3.1-6.3-3.1-8.8-5.9-5.6-6-12.7-10.4-19.4-15.1-4.2-3-10-6.3-8.6-13.5.2-1.2-.5-2.2-1-3.3-1.5-3.5-5.6-7-3.6-10.6,3-5.3,4.3-11.9,9.9-15.6,2-1.3,4.6-1.5,5.4-5,.5-2.2,1.7,1.7,3.4,1.3,1.5-1.1.9-2.9.8-4.4-1.1-15,6.5-29.1.4-44.8-2.3-5.8-1.5-12.2.8-17.9,4.5-11.2-2.9-20.7-1.2-31.3.8-4.6-2.1-9.8,2.4-13.8.5-.5.2-2.2-.8-3.2-3-3-2.3-7.5-1.2-10.3,1.4-3.6,3.1-6.2-.3-9.2,4.5-4.7-1-9.3,0-14-.6-.5-1.2-1.2-1.9-1.3-9.2-.8-10.4-1.2-12.7-10.5-.9-3.5-2.6-6.5-4.2-9.4-2.2-3.9-4.2-3.4-8.3,1.1-1.3,1.4-2.8,2-4.1.9-1.4-1.2-3.5-2.2-3.4-4.7,0-1.4-.8-2.5-2.2-2.2-3.3.9-7.7,1.2-9.5,3.4-3.1,3.9-10.7,3.1-10.5,10.1,0,.4.2.4-.4,1.2-.6.9-1,.4-1.5.7-.6.4-.5,1.2.5,1.5.3.1.9.3,1.4-.7,4.5.6,3.1,3.2,1.8,5.1-2.1,3.1-3.8-.8-5.8-1.4-1.8,3.3-1.3,6,1.6,8.5,2.7,2.3,5.4,5-.9,6.1-.9.2-1.6,1-1.6,2,0,4.8.2,9.7,0,14.5-.2,4,4.5,4.5,5.1,8-5.7,8.5-10.6,17.3-5.6,28,.3.7.8,1.6.5,2.2-5.1,11.3-1,23.2-2.5,34.7-.9,7.4-3.1,14.7-2.6,22.4.3,5,.4,9.5,5,12.8,2.7,2,5.8,4.9-.8,6.2-1.2.2-1.8,1.4-1.6,2.8.8,5.1-1.9,10.5,1.9,15.2,1.7,2.1,0,3.7-1.6,5-3.4,2.8-4,5.9-1,9.6.4.5.7,1.1.6,1.8-.2,13.3,3.9,26.2,2.6,39.6-.4,4.3-3.9,7.8-2.7,12.5.6,2.3-.5,4.9,3.6,4.8,1.7,0,2,2.4,1.1,3.8-3.7,6.3-4,7.2.9,10.6,2.4,1.7,1.6,3.2,1.9,5,.3,1.5-.5,2.4-1.8,2.6-1.7.2-3.2,0-3.2-2.5,0-.7-.5-1.4-.9-2.1-4.3,1.6-4.9,5.3-3.9,8.7,2.2,7.9,5.2,15.5,4.9,23.9-.1,2.8,6.3,2.7,3.2,7.1-2,2.9-.9,6.4-.6,9.5.4,3.9-5.7,7.7-.2,11.5-2.1,3.9-2.2,9.3-7.9,10.5-1.3.3-2.2,2.8-2.2,2.5-.6.2-1.1.4-1.7.7-.6.4-.5,1.2.5,1.5.3.1,1-.6,1.5-1.6,1.7-.2,4.9-1.8,4.7,1.3-.2,4.3,4.6,8.1.4,13-1.6,1.8-.2,6.1-.2,9.2-3.1.4-5.8,1.8-7.3-.8-1.2-2,1.2-3.4,2.2-4.9-1.4-2.3-5.7.6-5.2-5.7-4.4,10.9-5.5,21.2-16.3,25,0,4.1-4.4,5.5-5.4,8.8-1.2,3.7-3.8,6.4-7,7.5-2.7.9-3,2-2.9,4.2,0,1.6.1,3-2.2,3.5-7.5,1.8-12.9,4.8-19.7,10.7-6.4,5.6-14.7,8.9-23.2,8.8-5.3,0-10.9,1.9-15.8-2.2-1.3-1-2.7,1.1-4.1,1.7-6.5,3.1-12.6,3.1-20.1,1.5-8.5-1.8-15.5-5.4-21.5-10.4-6.3-5.3-12.1-11.4-17.2-18.5-6-8.4-9.4-15.6-4.9-25.8,2-4.5.8-10.4-4.5-13.9-2-1.3-3.7-3.3-5-5.3-4.3-6.6-3.5-13.4,2.2-19.1,1.7-1.8,3.5-3.4,5.3-5.1-.9-9.5,1.3-17.8,6.9-25.5,1.9-2.6,4.4-4.8,7.4-6,2.6-1.1,4.7-3.4,7.3-4.2,6.6-1.9,12.6-8,20.4-2.7,1.4,1,4,.3,6.1.1,3-.3,5.1.8,7.7,2.4,12.2,7.4,19.7,17.5,20.7,32.2.5,8.2-1.5,15.7-5.3,22.5-2,3.5-2.1,6.7-2.2,10.2-.2,4.5,2,6.6,6.4,6.9,1.9.1,4.3-1,5.7,1,6.4,9.2,14-.6,20.8,1.4,1.7-3,5.2-5.7,5.8-8.4.9-3.8,3.8-7,3.2-11-2.2-14.6,6-28.3.8-43.2-2.1-6-1.6-12.5.6-18.5,2.8-7.5-1.5-11.3,3.7-17.9.2-.7-.2.8.9.3.5-.2.8-.9,1.1-1.5,0,0-.5-.5-1.5.4-5.5.3-3.2-3.6-2.9-5.7.3-2.7,0-5.4.2-7.8.9-12.2-4.1-23.8-2.8-35.9.4-4.2-1.6-8.8,2.3-12.7,1-1,.4-4,.1-6-.9-6.2-5-12.4-.4-18.7-4.4-6.7-1.4-14.2-2-21.3-.5-6.9-.1-13.9-.1-20.9v-22.2c0-7,0-14,0-20.9,0-2.7-.4-5.3,2-7.8,2.5-2.7-5.8-6.8.4-10-5.5-8.7-1.2-18.2-2.4-27.3-.5-3.6.6-7.5-.2-11-1.3-5.6,6.6-11,.2-16.5v-17c-3.1-1.2-2,1.2-2.5,2.2-.5,1-1.4,1.9-2.2,2.8-1.1,1.4-2.4,2-4.4.9-2.1-2.4.6-6.1-1.6-9-2.5,2.1-4.5,3-7.8.2-1.9-1.6-6.3-.3-9.9-.3-1.5,3.1-3.2,6.4-4.6,9.1-4.5,3.5-6.9-4.3-11.3-.9-3.3,2.5-2.4,5.7-2.5,8.8-1.7,0-2.5.8-2.5,2.5-5.9,2.5-6.3,9.9-11.6,13.1-1,.6-.9,3.8-.7,5.7.9,9.1-2.2,18.4,2,27.2-4.6,8.9-1.4,18.3-1.9,27.5-.4,5.8-1.8,12,2.2,17.5.6.8-.3,2.6.2,3.6,1.9,4.9-5.6,8.6-1.7,13.4,3.3,4.1.7,8.7,1.6,12.9,1.2,5.4-3.5,9.6-2.6,15,.6,3.3-1.2,7.4,4.5,8,.9.1,1.6,3.3,2.5,4.9,3.1,6.3,8,14.3,13.4,19.5,3.6-3.6,7.2-7.4,11-11,3.7-3.4,6.2-3,8.3,2,2.3,5.6,6.7,9.6,10.2,14.1,3.9,5.1,5,9.7,4.2,15.5-1.8,1.4-4.3,1.3-6,3.4-3.5,4.1-8,7.2-11.1,11.5-3,4.1-9.5,4.3-10.5,10.2-5.7.3-4,4.6-4.2,7.9-12.3,9.9-24.6,19.9-36.7,29.7-2.8-.8-4.2-2.6-5.2-4.8-2.5-5.7-5.2-11.3-11-14.2-2.6-1.3-5.5-4.6-6.7-7.2-5.6-11.8-8.1-14.1-20.7-23.7-4.7-3.6-8.6-7.7-14.5-9.7-8.1-2.8-8.4-3.4-13.6,1.6-12.1,11.8-23.5,24.1-33.3,37.9-4.6,6.5-13.4,8.6-17.6,16.3-8.4-7.5-17.2-12.5-23.6-20.3-1.3-1.6-2.7-3.1-4.4-4.3-4.9-3.7-12.7-3.1-15.2-10.3-6.8-.8-10.2-8.4-17.6-8.4-1.5,0-3-2.4-4.5-3.8-4.4-4.3-8.7-8.7-13.2-13.2-5.1,4.5-7.4,10.8-10.8,16.3-1.5,2.4-2.3,4.7-5.1,5.8-.7.3-2.1.7-2.1.7,2.3,9.7-9.2,12.1-10.8,20.1-.6,3.1-2.8,7.8-6.6,9.4-4.1,1.8.2,5.1-2,7.1-2.4,2.2-4.7,4.6-7.4,7.4-6.9-11.2-16.6-19.7-25.7-28.9-2.9-2.9-2.9-7.3-5.4-10.1-2.3-2.7-1.6-8.6-8.6-6.6-1.3,4.7-7.4,7.5-10.3,12-1,3.5,3.8,4.1,1.9,7.8-2.2,1.8-7.5-.7-8.3,5.4-.5,3.7-7.5,2.5-8.6,7.2-.2.8-.4,2.2-.5,2.2-4.7-.3-5.6,5.7-10,5.7-4.7,0-7.9-2.8-11.2-5.6-13.2-11.2-26.8-21.8-41-31.7-7.6-5.3-14.7-11.5-22.4-16.8-4.6,3.8-2.6,6.3-5,9.6-5.4,4-7.8,3-11,17-3,12.9-11.8,21.8-21.5,29.9-4,3.4-9.2,3.1-13.7,2.3-5.2-.9-10.7-2.3-15-5.1-2.8-1.8-3.8-6.4-5.4-9.9-2.5-5.2-8.3-8.3-8.6-15-.1-2.2-3.2-4.6-5.4-6.2-1.9-1.3-5.2-1.8-6.5.6-2.6,5.1-7.8,7.2-11.4,11.1-3.5,3.8-7.3,7.4-11,11.1,1.9,1.7,3.7,3.3,2,5.3-1.6,1.9-3.2-1.7-3.2-1.4-.2,5.8-6-3.7-6.2,2.5-.1,4.7-5.7.3-6.6,2.9-2.7,7.7-8.1,3.4-12.6,3.3-.6,0-1.1-1.4-1.8-1.5-3.5-.5-8.5,1.7-10.4-1.2-5.1-7.4-14.5-10.4-18-19.4-1.3-3.5-4.3-5.9-5.3-10.2-.8-3.2-3.8-6.2-5-10.2-1.8-6.2-7.9-10.4-9.6-17.4-2.3-2.1-2.7,3.2-5.7,1.9-4.4-2-3.2,3.3-5,4.9-1.7,1.5-2.9,3.5-4.1,5.6-1.6,2.9-2.9,6.3-5.3,9-2.8,3.2-5.4,7.4-4.2,14-2.6-3.3-3.8-4.8-5.7-2.2-4.7,6.7-8.8,13.9-14.8,19.8-2.9,2.9-6.6,5.6-9.3,6.9-4.3,2-8.8.4-13.1,1,.2-6.2-8.4-2.6-9-8,0-.9-.5-2.5-2.2-.9-2.9,2.7-5.3,2.8-5.1-2,.1-2.4-1.1-3.7-2.6-5.1-2.1-2.1-2.4.7-3.5,1.1-.2,0-.8-.3-.8-.5.8-6.2-4.3-8.1-7.8-11.5-3.6-3.4-5.7-8.5-8.2-12.9-2.4-4.2-4.3-8.6-5.9-13.1-3.4-9.8-10.4-18.1-10.7-29-5.3-6.3-4.3-15.8-10.8-21.4-1.4,1.6-5.7,2-1.9,5.8,1.4,1.4.7,3.9-2.3,3.9s-3.6.2-5,3.3c-2.1,4.8-3.6,10.5-8.2,13.8-4.3,3.2-7.6,7.7-10.7,11.6-5.6,6.9-12.7,12.5-17.3,19.8-2.3,3.7-6.3,3.9-8.3,7.4-2.6,4.6-8.5,6.1-11.2,11.2-2.5,4.7-7.8,6.6-12,9.6-16.4,11.7-33.7,20.8-54.8,19.5-2.5-.2-4.4-.5-6.5-2.3-8.4-7.3-18.4-5.9-28.2-4.1-6.1,1.1-12,2.9-18.1,3.8-8.5,1.3-15.1-1.2-21.5-8-6-6.3-13.3-11.8-21.8-15.3-4.5-1.8-9-4.1-13.1-7.4-3.7-2.9-9.1-3.4-13.4-6.1-8.5-5.4-18.8-6.1-28-9.7-6.3-2.5-12.5-5.9-19.6-6.4-1.2,0-2.7-1.5-4.3-1.2-6.5,1-12.3-1.6-18.2-3.8-4.3-1.6-8.4-2.2-12.5.3-4.4,2.6-12.5-2.8-12.8-3.3-.4-.6-1.2-.5-1.5.5-.1.3,1.3.3,1.6,1.4.2,1.5,1.5,3.6-.4,4.5-2,1-3.9.8-4.1-2.2,0-.7-.6-1.4-1-2-7.8,6.2-9.5-2.7-12.7-5.7-8.4-7.8-6.6-18.3,3.2-24,3.5-2,8.1-2.2,10.6-7.4-5.1-.2-9,3.7-13.8,2.7-1.7-.3,0,4.4-3.9,4.8-5.9.6-9.1-2.7-11.9-6.7-1.7-2.4-2.2-5.7-3.8-8.2-4.8-7.5-5.2-7.9.5-12.7,8.7-7.3,17.7-14.1,27.2-20.3,3.3-2.2,7.9-.7,10.5-4.9,2-3.3,5-5.6,5.5-10.2.2-2.1,1.2-5.2,2.3-7.5,1.2-2.6,4.7.2,6.5-1.8,10.6-11.3,25.2-16.4,38.1-24,9.6-5.7,14.6-15.1,16.6-26,.4-2.3-.8-5,1.9-6.6,3.2-1.8,1.9-3.9.8-6.4-.7-1.6.3-3.6,1.1-5.6,1.9-5,4.8-9.9,3.7-15.7-.4-2.4.3-3.7,3.1-3.8,2.2,0,1.7-2.2,1.8-3.8,1.3-16.5,6.7-31.3,15.5-45.4,2.8-4.5,4.2-10.7,4.3-16.7.3-13.5-.8-26.9-4.9-39.9-1-3.4-.4-7.8,2.3-9.7,1-.5.7-.3,1.7-.9.5-.2.2-.5.5-1,0,0-.5-.5-1.5.3-2.5.8-5.1,2.3-5.6-.8-.7-3.8,1.7-8.2-2.2-11.4,3.2-4.1.3-8.3-1.5-10.8-2.5-3.7,1.1-8.4-3.1-11.1-.3-.2-.6-.7-.6-1,2.7-14.3-8.5-22.7-14.2-33.5-.9-1.7-2.2-3.2-3.3-4.7-4.1-5.6-6.3-13.8-16.3-12.7-2.3.3-5.2-3-7.6-5-2.4-2-4.1-5-8.1-4.3-2.3.4-1.6-2.3-2.4-3.1-5.1-4.9-10.5-9.4-15.9-13.9-.8-.7-2.5-.3-3.2-1-3.9-3.4-10.1-.4-13.9-5.8-2.3-3.2-7.9-4.1-11.8-5.9-1.6.7-2,1.6-2.1,2.9,0,1.8,1.1,4.3-2.2,4.6-3.2.3-2.3-2.4-3-4-.2-.3-.6-.6-.9-.9-2.6,1.7-.3,4.6-2.3,7.4-4-.4-8-3.5-12.8-2.7-3.1.5-5.1,3.1-8.8,3-3.9,0-1.1,4.6-2,7-.2.7-.4,1.6-.9,2.1-5.9,5.2-5.4,10.8-1.7,17,1.4,2.4-2.2,6.6,2.5,8.1,0,1.7.8,2.5,2.5,2.5-.3,1.5.7,2.4,1.9,2.4,3.7.1,7.5-.5,11,.2,3.7.8,7.4,1,9.9,5.9,2.2,4.3,6.3,8.3,13.1,9.3,7.6,1,10,8.7,10.9,15.7.4,2.8.3,5.6.2,8.5,0,2.7-2.3,4.7-5,4.7-.8,0-1.4.1-1.6.8-1.2,3.8-3.1,4.9-6.8,4.3-2-.3-4.3-.3-3.9,2.8.2,1.6-6.1,5,1.2,4.6-.6,3.1-.6,6.5-2.1,9.1-1.2,2.1-3.3-.9-4.9-1-3.3-.4-1,2.8-1.7,4.2-2.3,1.4-7.4,1.5-2.7,6.1.5.4,0,2.5-.6,3.1-.6.6-2.2.5-3.2.3-.7-.1-1.1-1.3-1.7-1.6-4.8-1.8-4.1,1.7-4.1,4.4-3.1,1.3-6.9,1-9.9-1.4-2.7-2.1-6.7-1.9-8-.8-3,2.6-5.1.8-6.7-.4-5.3-3.9-11.9-7-12.5-15,0-1-1.1-2.6-1.9-2.8-5-1.3-4.6-6.3-7-9.2-2.7-3.4-5.3-6.8-7.7-10.4-3.3-5-3.4-10.5-3-16,.4-5.4.7-14.1-.9-17.3-.7-1.5-.9-1.9-.2-3.6,1.9-4.2,1.8-9.1-.4-14.2-1.3-3,1.1-4.7,1.8-5.8,2-3.4,3.4-6.2.4-9.6-1.3-1.5-1.3-3,.2-4.2,2.4-1.9,1.8-4.6,1.4-6.8-1.3-7.4,2.8-13.9,2.9-21.2.1-6.6,7.3-9.9,11.6-14.1,4.5-4.4,10.7-6.9,14.2-12.6,1.2-2,3.4-4.4,5.3-4.7,9.2-1.3,13-8.8,17.7-15,3-4,5.3-7.2,11-7.8,2.5-.3,7.1-1.8,8.6-5.5,1.9-4.5,7.5-5.7,9.2-9.5,1.9-4.4,7-6.6,7.7-10.3,1-5.4,6.6-3.7,8.2-7.6,1.6-4,5.7-3.7,9.5-3.7,3.2,0,4.2-4.8,6.6-4.7,8.5.5,16.4-4.6,24.8-2.6,5.2,1.2,10.4,3.6,14.1,7.3,5.5,5.4,12.7,7.3,18.8,11.2,3.1,2,6.3.7,9.4,1,2.5.2,5.2-.2,6.4,2.5,3.6,8,10.6,13.1,16.8,18.8,4.2,3.9,5.9,10.1,11.7,12.3-.7,6.7,5.5,10.2,7,15.5,1,3.7,7.9,1.5,5.8,7.6-.7,2,2,6.2,2.7,9.7,5.3-2.3,6.9-9.1,13.1-9.9.4,0,.9-1.2,1-2,1.4-8.5,8.4-12.1,14.7-15.7,4-2.3,5.2-6.4,8.4-8.8,5.7-4.1,7.2-11.8,14.5-15,6-2.6,8.5-10.7,15.7-12.7,2.3-10.2,15.9-10.3,18.4-20.5.6-2.4,3.9-2,5.3-1.3,3.9,2.1,8.2,5.2,9.1,9.2,1.9,8.4,5.8,15.7,10,23.1,2.8,4.9,3.5,10.8,5.6,16.1,4.2,10.3,12.4,18,19.2,26.5,4.6,5.7,10.6,10.3,15.5,15.8,4.6,5.1,10.2,8.4,16.2,11.4,4.7,2.4,9.1,3.9,14.5,3.9,8.7,0,9.4,3.7,3.9,13.3-1.4,2.4-2.4,4.9-3.3,7.5-1.7,5-1.6,5.2-9.7,6.1-2,.2-3.5,1.5-3.7,2.6-.9,4.5-5,5.7-8,7.4-3.8,2.2-5.7,5.8-8.5,8.7-3.1,3.2-2.6,9.1-6.2,10.6-4.2,1.7-6,5.2-9.2,7.5-5.7,4.1-7.7,10.8-11.1,16.5,2.2,2.5,3.8.5,5.7-1.1,2.4-2.1,4,2.8,5.8,1.3,2.4-2,3.6-1.2,6.1,0,13.1,5.8,24.9,13.8,36.3,22.2,4.3,3.2,8.4,7.1,10.8,12.7,2.1,4.9,9.8,6.4,9,13.5,0,.3.1.8.4,1,9.8,8,10.9,20,14.6,30.9,2.1,6.4,6.5,12,8.1,18.8,1.4,6.4,4.2,12.5,4.3,19.2,3.3,1.8,6.1,1.5,8.4-1.6,4.4-6,11.9-8.1,16.4-14,1.7-2.1,4.6-3.2,4.7-6.7,0-1.6,1.9-3,2.5-5.1.9-3.1,2.5,2.1,4.1.5,1.3-1.4,3.1-2.4,3.2-4.9,0-2.2,2.5-2.5,3.6-1.7,2.3,1.8,3.8,3.7,3.8-1.2,0-.3.5-.9.7-.9,9.9.7,13-9.4,20.7-12.6,2.1,1.5-.3,4.5,1.6,6.7,2.6-2.7,1.3-7.1,4.1-9.5,5.8,3.1,8.9,9.1,12,14.1,6.2,10.1,12,20.4,18.6,30.4,3.1,4.6,4.7,10.3,6.3,15.8,2.8,9.9,8.8,16.5,18.8,18.5,2.8.6,4.4,3,7.4,3.2,1.6.1,3.4,2.6,3.6,5.7.5,9.7-1.2,14.9-8,22.6-2.4,2.7-5.9,4.4-7,8.2-5.2,1.7-.9,6.5-2.4,8.5-2.7,1.6-4.5,3.4-6.6,3.7-2.6.4-3.1,1.3-3.4,3.7-1,7.9-6.8,22-11.1,28.6-3,4.5-3.7,10.5-8.7,13.5-4.4,2.7-7.4,6.9-11.6,9.8-3.3,2.2-8,4.6-7.9,10.1.2,6.7-6.3,13.4,0,20.1-1,4.2,3.3,2.4,4.6,4,.6.7,2.1,2.4,2.4.5.9-5.7,6.1-4.8,9.4-6.8,3.7-2.4,8.1-4.8,8.1-9.9,0-5,7.8-5.4,5.6-11.1,3.3-3.4,3.2-8.8,7-11.9,3.7-3,5.7-8.1,11.1-8.7,4.3-8.1,12.3-9.1,20.3-10.3,2.1-5.1,0-10.5,2.5-16.1,2.2-5.2,3.9-9.1,9.4-10.7.7-.2,1.1-1.4,1.8-1.6,3.3-1.3,6.9-2.1,6.7-6.9-.2-5.3,0-10-5.9-13.7-7.2-4.4-11-12.3-11.1-20.8,0-3.8,2.4-7.4,0-11.6-.9-1.5-.9-4.6,1-6.8,3-3.6,3.5-8.4,5.2-12.6,1.7-4.1,1.4-8.9,7.6-10.5,3.5-.9,5.2-6,5.5-9.7.7-8.3,7.7-14.4,7.6-22.8,5.4-.4,3.7-6.1,6.1-8.2,3.2-2.8,3.4-7.3,6.8-9.6,2.7-1.9,2.2-5.7,5.1-7.8,3.9-2.8,8.1-4.2,11.7-1.1,3.9,3.4,8.3,6,12.3,9.2,11,8.9,20.2,19.9,31.2,28.7,10.9,8.7,20.1,19.5,31.8,27.1,5.7,3.7,9.9,9,16.4,12.3,0,6.7-2.8,13.9,1.9,19.9,4.1,5.3,2.3,10.3-.1,15.2-1.4,2.8-4.3,5-.2,8,1,.7.6,3.3-1.5,3.6-1,.2-2.5-.4-3.1-1.2-.6-.8.4-2.5-1-3.2-.7-.3-1.6-.5-2.3-.4-1.3.3-2.4,1.5-1.7,2.6,2.2,3.1,1.9,4.5-2,5.8-2.2.7-3.3,3.1-3,6,1.5,14-3,28.3,2.5,42.1.3.7.3,1.8,0,2.4-4.6,7.9-1.5,16.6-2.4,24.9-.2,1.5.3,3-.7,4.7-3.6,6-2.2,12.1.7,18,1.7,3.4,4.3,6.3.5,10.6-2.3,2.6-.5,6.9,2.7,8.1,5.7,2,8.4,7.3,12.4,10.2,4.1-1.3,4.9-6.3,9.7-7.1,4.1-.7,5.8-5.8,5.9-8,.3-10.8,5.9-21.6,2.8-31.9-2-6.6-1-12.6-1.9-18.9-.4-2.5,0-4.9,2.4-6.4-5.2-7-1.8-14.9-2.2-22.4-.6-11.2-.3-11.3,6.1-23.2,1.3-2.4-1.3-2.6-1-3.5,1.2-4.8-5.6-2.7-5.2-6.3.5-5.1-1.8-10.6,1.7-15.3,1.4-1.9,1.4-4.7.5-5.7-2.8-3.3-3.2-5.9-.5-9.6,1.1-1.5-2-2.6-3.1-4-2.8,5.3-5.3,6.5-8.4,3.6-2.2-2.1-5.1-3.6-5.3-7.7-.2-3.7-2.2-7.2-4.1-10.8.5-3.8-3.9-6.1-3.3-10.1.6-3.6.1-7.3.1-10.9,7.5-3.7,12.9-9.4,17.3-16.2,4.1-6.3,8.3-12.5,14.1-17.6,3.1-2.7,5.6-6,8.8-8.6,2.2-1.7,1-6.6,6-5.8,4.6.8,9.2-.7,13.3,3.8,9.5,10.5,17.8,21.6,21.8,35.4.5,1.8.9,2.8,2.9,2.8,2.4,0,2.7,2.2,2,3.4-3.9,7.6-3.8,15.1,0,22.7,1.1,2.2-2.4,3.5-2.3,5.1.7,7.1-1.2,14.1,1.4,21.5,1.6,4.4-.4,11.1-2.1,15.7-2,5.5-.6,10.4,1,14,2.5,5.4,2.5,9.4.2,14.5-1.8,4.1-.7,8.7-.5,13.1,7.2.5,2.8,7.2,5.2,9.9,4.1,4.6.6,6.3-2.4,8.3-.8.5-2.3.2-3.1,1.4,0,5.7.9,11.6-.2,17.1-1.3,6.5,3.4,12,.7,19.1-2.3,6.1-.5,13.7-.5,20.8,5.6,1.2,10.7,2.4,12.5,9.1,1.6,6,6.9,9.6,11,13.9,3.3,3.5,7.1,3.1,10.8,1.2.7-.4,3-.8,2-3.4-4.1-10.6-1-20.7,2.7-30.7.4-1,.4-3.1.1-3.2-8.3-2.6-4.1-9.3-4.3-14.1-.6-12.3,1.4-24.9-.6-36.9-2.8-16.6-1.7-33-2-49.6-.3-16.4-.3-32.8,0-49.3.2-12.5,2.9-24.4,9.5-35.5,3.3-5.5,6.4-8.7,12.9-8.1,5.9.6,11.3.4,13-7,.3-1.4,2-2.8,3.4-3.4,7-3.4,12.4-7.3,14-16.1.8-4.5,7.2-6.7,13.2-8.4-.2,5.2,2.4,9.7,1.2,14.7,0,0,.6.4,1,.5.8.2,1.5.3,3.1.5-1.4,3.5-6.8,5.2-4.9,9.8,1.5,3.5,5.9,5.1,5.4,10.6,2.8-4.2,2.6-8.8,8.6-8.5.1,5.7,4.4,11.4-.6,17.3,1.4,6.6-2.4,13-1.2,19.7-8.2.2-9.2-6.5-11.7-12.3-.9,6.4-1.3,12.5-2.7,18.6-1.2,5.3-2.7,12,2,17.3-1.5,6.3,6.1,12.5,0,18.8.1,8.4-1.4,17.1,4.9,24.2.4,2-2.4,2.5-2.4,3.9-.1,8.4-3.1,16.2-2.8,24.8.7,20.1.1,40.2.3,60.3,0,4.6-1.1,9.3,2,14,1.5,2.3,1.5,7.2-.8,10.3-3.9,5.4,0,9.7,1.8,14.2.9,2.4,4.2,3.4,4.5,6.8.2,2.3,5.7.4,5.1,5.1-.2,1.5,3.5,2,4.5-.4,2.7-6.2,7.9-10.6,11.6-16.1,3.8-5.4,7.4-10.6,9.6-17,2.6-7.6-1.3-16,3.4-23.2.1-.2-.9-1.2-1.5-1.7-1.8-1.7-1.4-5-.7-5.6,3.9-3.4,1.8-7.6,2.3-11.5,1.9-15-3-29.6-2.4-44.5.1-3.7-1.3-8.3.5-10.8,3-4.3-1.2-6.9-.8-10.6,1.3-11.8-.4-23.5-4.5-34.9-.7-2-.6-5.4.7-6.9,3.8-4.5-2.3-3.2-1.8-5.9-2.3,2.3-3.7,3.7-5.2,5.2-3.8-4.3-7.6,2.3-11.5,0-2.5-1.5-4.7-2.8-4.6-6.2.2-5.3,0-10.7,0-16,5.2-.5,1.6-5.2,3.5-7.8,2.7-3.4,6-6.5,7.7-11.3,1.5-4.4,2.7-9.5,5.5-13.7,4.1-6.1,7.4-12.6,11.5-18.7,10.1-15.1,17.5-31.3,21.2-49.2.5-2.6,1.4-5.6,3.2-7.2,4.7-4.2,6-9.9,7.6-15.4,2.3-7.7,5.6-14.7,12.9-19.8.6,0,1.8.2,3,0,8.7-1.7,15,2,20.2,8.8,3.5,4.6,2.2,11.5-1.8,15.7-3.2,3.3-2.2,8.3-5.5,11.1,2.3,10-7.4,19.8-.3,30,1,1.4-.4,3-1.7,4.1-4.8,4.1-3.6,9.2-1.9,14.2,0,.1.8,0,1.2,0,.2,2.2-1,5.3,3.2,4.9,1.2-.1,2.4-.1,3.5-.5,14-5.5,16.9-5.6,31.7-2,3.3.8,7.2-.7,10,2.3,2-2.4,5.1-2.8,7.8-4.4,1.8,4.4-.7,9.4,2.7,13.9,1.5,2.1,1.1,6.9-.8,10.4-2.2,4.2-3.1,8.5-1.5,13.4,1.6,5-3.4,9.4-2.5,15,.8,4.9,1,10.3-3.3,14.9,4.2,1.4,4.6-2,6.3-3.1,1.7-1.1,3.3-2.6,4.3-4.3,1.2-2.2,5.4,0,5.2-3.8,5.2-3.7,10.3-7.4,12.7-13.8.7-1.8,2.6-3.4,4.3-4.3,9-5.1,10.6-14.6,12.2-23,1-5.3,3.7-10.4,3.2-16.2-.2-1.7,2.8-3.7,4.9-6.2-4.5-.3-9.1-1-11-5.3-1.6-3.7-4.5-6.3-6.5-9.7-.2-.3,0-.8,0-1.2-.4-4,3.3-6.9,2.7-11.3-.5-3.3-1.7-7.3,1.4-10.4-.9-9.3,4.7-17.1,6.4-25.9,1.8-9.4,4-19.5,10.2-27.7.2-.3.8-.6.8-.9-.4-12.1,11-16,16.5-24.1,4.3-6.4,11.2-6.8,17.2-9.4.9-.4,2.6-.5,3.3,0,7,5.2,16.4,8.4,19.6,17.3,2.7,7.5,6,15.2,5.7,23.4-.1,3,2.9,5.3,1.3,8.3,0,0,1.4,8.4,1.4,8.4-2.6,2.9-6.3.2-9.1,1.6-3.2,10-4,20.6-9.7,29.5-1.6,2.5,1.9,2.9,1.4,3.4-.9,1-2.9,1-4,1.9-8.2,6.5-16.6,12.7-26.4,16.7-.7.3-1.2,1-1.8,1.5-2.7,2.1-2.9,6.8-8.4,6.4-2.4-.2-4.7,5-8.7,5.6,10.6,5.8,23.3,23.2,33.2,45.4,1.3-.7,2.5-1.7,3.8-2.1,1.1-.4,2.9.8,2.1,1.4-4,3.5-1.2,5.5,1.2,7.8,3.5,3.5,6.9,7,10.3,10.5,2.1-1.7,1.2-3.9,1.3-5.8.1-2-.5-4.2,2.8-4.2,3.3,0,1.4,3.3,3.7,5,2.1-9.3,11.1-10.3,17.3-14.8,5.4,2.4,8.4-6.4,14.5-3,1,.6,4-2.9,3.8-6.3-.3-9,.6-18.1-.3-27.1-.7-6.7,3-12.2,2.9-18.7-.1-6.3-1.5-12.7,1-19.2,1.2-3.1-3.4-7.6,1.1-10.9-3.8-6-2-11.5-.2-17.9,1.7-6.1-.7-13.3.6-19.6,2.3-10.5,6.6-20.6,9.8-31,3.4-11.1,7.8-21.8,12.1-32.6,1.5-3.8,1.9-8.2,7-9.2,2.5-6.1,9.4-7.7,13.1-12.8,1.6-2.3,2.2-1.8,8.8,1.3,2.3-3.9-1.6-10.9,4.9-12.2,4.7-1,6.5-7.6,12.8-5.3,2.6.9,5.2-2.4,8.8-2.5,16.6-.2,16.9-.5,34.4,12.3,2.9,2.1,5.9,4.6,9,4.9,4,.4,1.7,8.6,7.6,5.3,1.2-.7,1.9.7,2.4,2,5.2,13.3,15.6,23.6,20.9,36.9,1.9,4.9,3,10.2,6,14.8,1.2,1.9-.9,5.9,4,5.6,1.1,0,1.6,2.2,1,3.1-3.6,5.6.6,11,.1,16.5-.3,3.1-.8,5.9-2.1,9-1.3,3-2.7,7.1-.7,11.5,1.7,3.6-.7,4.6-3.7,1.9-.3.7-.7,1.4-.9,2.1-.3.9-4.1,4.4-4.9,6.4-2.8,7.8-14.8,5.9-15.6,15.3-6.1-.3-10.3,5.3-16.2,5.5-5.3.1-10.7,0-16,0-1.7,0-3.2,0-4.3-1.5-3.2-4.2-8.6-5.1-12.9-7.6-2.6-1.5-4.7-2.1-4.2-5.7.6-3.8-4.2-1.4-4.9-3.9-2.2-8.8-8.6-16.9-2.9-26.7,1.3-2.3.8-5.5,0-8.2-4.6.9-9.2,4.9-9.2,9.4,0,8.4-3,16-4.7,23.9-1.7,7.9-.2,16.4-.4,24.6-.1,5.6-.2,11.2,4,15.6,1.3,1.4,1.7,3,.2,4.2-2.1,1.7-3.6,0-5.1-1.5-.1-.1-.6,0-1.3.2-.3,5-2.3,10.6,5.8,11.8.5,0,1.3,1.2,1.3,1.8-.6,6.7,3.4,7.7,8.9,8.5,4,.6,7.1,4.8,12,2.3,1.6-.8,4.1-1.2,5.7.4,2.8,2.9,2.4.7,3.2-1.4,1.5-4.1,7.5.5,8.9-4.3,8,.1,16.1-1,23.6,2.6,3.1,1.5,5.8,4,7,7.7.8,2.4,2.4,4.5,3.7,6.8,3.8-1.6,3.8-5.9,5.9-8.7,3.4-4.5,6.5-6,11.3-3.5,6.7,3.5,9.6,6.2,14.6,12,5.1,6,10.6,11.3,14.3,18.7,4.2,8.4,4.9,17,6.8,25.6.8,3.8-1.4,8,2.3,11.5,1.1,1.1,0,2.9-1.3,4.1-2,2-.5,4.7-.9,7-.7.3-2,.6-2,.9.3,7.5-2.7,15.1,1.6,22.4,1.2,2.1,1.1,5.5-.3,8.2-2.9,5.3-3,10.6,0,15.8,1.2,2,1.1,4.2.6,5.8-2.8,7.7-.3,14.7,2.3,21.8.6,1.7,0,2.8-1,4.2-2.8,3.7-4,8.4-3.8,13,.4,10.4-.2,20.8.3,31.1.2,3.6-3.4,9.3,4,10.4.2,0,.6.8.6.8-5.2,3.9.6,8.1-.3,11.5-.9,3.6-1.3,6.3,2.2,6.7,6.3.8,6.5,6.8,8.9,10.3,3.9,5.7,8.9,10,14.2,16.2,3-6,7.3-10.2,3.5-16.5-2.1-3.4-2.1-7.7-.9-10.5,3-7.1,1.5-13.2.3-20.4-1.3-7.5-2.4-15.9,1.1-23.9,2.2-4.8,1.5-10.5.5-15.6-2.1-10.8-2.4-10.7,0-21.6.2-.8.6-1.7.3-2.3-5.4-10.4,0-21.9-2.7-32.2-4-15.3-2-30.7-1.8-45.9.1-8.3,1.3-17,4.3-25.2.9-2.4,1.3-4.7,3.5-6.6,3.3-2.7,6.5-5.5,9.1-8.9,2.9-3.8,4.9-5.4,7.8-2.3,1.7,1.9,1.5-.5,2.1-1.1,4.5-5.3,6-5.7,12.6-3-1.5-7.1.9-12,7.2-14.8,3.6-1.6,3.5-5.4,4.9-8.3,2.8-5.6,6.5-10.4,13.6-11.4,2.4,2.7,0,7.3,3.6,9.5-1.8,2.6-1.1,4.9-.3,7.9.8,3,1.7,7-1.3,10.4-2.1,2.5-1,6,0,9.3,1.1-1,2-1.7,2.8-2.5,2.3,1.9,1.1,4.3.8,6.6-2.1,1.7-1.7-2.4-3.8-.9,0,.1-.7.8-.7,1.5,0,8.2,0,16.5,0,24.7,0,9.2-.4,18.3,2.2,27.4,1.2,4.1,5.1,9.6-1.8,13.2-.6.3-.8,2.4-.4,3.4,4.9,13.4,1.6,27.3,2.2,40.9.3,6.2,2,12.9-2.2,18.8-.6.8-.6,3.2,0,3.5,4.4,2.8.9,7.8,3.2,11.2,3.3-1.5,1-4.2,1.6-6.3.4-1.5,0-3.3,2.3-3.4,2.2-.1,2.6,1.1,2.7,3,0,1.3.9,2.2,2.4,2"/>
  <path class="cls-1" d="M1922,556.9c.3-.3.6-.6.9-.9-.5-.3-1.1-.6-1.6-.8-.2,0-.5.5-.8.8.5.3,1.1.6,1.6.9M1777.4,562.2c-.3-.7-.5-1.9-.9-1.9-1.5-.2-1.8.8-1.6,2,.1.7.4,1.9.8,1.9,1.4.2,1.7-.8,1.6-2M1884.6,12.3c-1.8,1.7-1.8,3.3,0,5,1.8-1.7,1.8-3.3,0-5M1847.6,460.8c-1.7,3.2-1.6,5.4.1,8.1,1.5-3,1.7-5.2-.1-8.1M2026.5,543.8c0,4.3-.2,7.1,0,9.8.1,1.2,1.7,1.6,2.9,1.2.7-.2,3.1-.6,1-1.9-3-2-.3-5.4-4-9.1M1878.4,546.5c7.6-6.2,5.6-24.2,11.6-30.9,6-6.6,1.6-18.7,4.9-26.7,2.6-6.2-7.8-20.5-7.8-27.8-17.1,2.4-.8,37.2-9.6,46,5.4,8.5.1,38.4.8,39.4M1839.8,483.4c-.5,2.7-2.7,1.8-3.7,2.5-1.7,1.1-1,5-3.3,5.1-3.5,0-2.4,2.5-3.8,5.8-2.3,5.4-1.4,11.5-4.6,16.5-2,3.2-4.7,6.6-.6,10.4,1.3,1.2.4,2.8-.8,4.2-1.8,2.2-6.2,3.5-2.2,7.7,2,2.1,1.8,6,5.6,7,4.1,1,7.9,3.2,11.3,5.3,4,2.4,7.3,2,13,1.6-5.9-6.2-3.7-12.5-4.2-18.4,2.2-.8,2.4,1.1,3.3,1.2,1.5.2,2-1.1,1.6-2.1-1.5-3.5-4.7-6.8-.5-10.5-2.7-3.8-.2-9.7-2.3-11.9-5-5.2,3-9.2.2-12.9-4-5.3-1.5-10.9-2.3-16.3-.4-2.4.8-5.2-1.3-7.5-2,2.2-.6,4.4-1.3,6.2-.7,2.1-3.9.3-4.7,2.5,1.5,2.4.7.7.6,3.7M1848.9,207.1c-4.8,1.5-2.2,5.4-2.3,8.1-.2,5-.3,9.5-5,12.8-5.5,4-7.7,10.3-7.2,16.5.3,3.7-4.3,6.9-.6,10.4-4.1,2.7-1.3,7.4-3,10.9-3,6.5-3.5,12.9,2.6,18.5,1.4,1.3,2.6,3-1.6,3.3-.7,0-.6-.5-.9-1.1-.4-.6-1.3-.5-1.5.5-.3,1.6,2.3,3,2,3.4-.2,8.1,1.3,14.6,10.2,21,.7-8.6,7.6-14.4,7.3-23.2-.3-7.4,0-14.8,0-22.1,6.9-8.3-2.1-18,2.4-26.5.3-.6-.6-2.3-1.3-3-2-2.1-1.8-5.3-.9-6.9,4.5-7.8,1.8-15.1,1.6-27.5-1.5.5-1.9,1.3-1.8,2.5,0,.8-.1,1.4,0,1.6.1,0,.3,0,0,.7M1885.3,549.5c-.3,1.7.7,3.8,1.5,5.6.1.3,3.9-3.3,2.8-11.3-.5-3.4,3.9-10.6,4.4-9.3.9,2.4-1.8-3.8-4.7-2-4.2,2.7-3.3,13.4-4,16.9M2033.7,226.6c1.3-1.1-.2-1.7.2-2.2,5.5-7.2,7.3-15.8,9.8-24.1.2-.7,0-1.7.5-2.2,3.8-4.4,4.9-10.3,9.2-14.7,3.5-3.6,3.9-9.6,6.7-14.3,2.6-4.4,7.9-3.8,8.4-2.8.2.5.9.8,1.5,1.1,0,0,.5-.5-.4-1.5-1.1-2.8-1.1-4.8-1.1-6.9,1.7-2.6,5.4.2,6.5-1.8,3.7-6.4,10.9-3.5,15.9-6.5,3.6-2.2,9.1,2.7,14.7,5.3,10.1,4.8,16.2,12.5,21.2,21.9,6.3,2.4,6.8,8.4,8.2,13.6,1.5,5.7,7.4,7.9,9.5,13.3,1.1,2.8,2.3,6.9,5.7,8.7,4.4,2.3,9.5,3.6,12.7,7.9,5.8-1.5,12.5,5.7,17.7-1.9,4,.4,6.9-5.6,12-1,2.8,2.6,6.5,3.1,6.9,8.3.2,3,2.2,6.5,4.9,9,2.8,2.5,3.3,5.1,1,8.4-3.7,5.3-5.4,11.7-9.4,17.1-2.5,3.5-3.6,7.7-7.9,10.1-2.9,1.6-.7,5.3-1.4,8.6-2.3,1.1-4.9,2.5-7.7,3.5-2.2.7-2.2,2.2-1.9,3.7.5,2.5-1.5,3.5-2.6,5.1-1.2,1.8-5.4.9-4.4,2.4,2.5,3.5,1.4,3.2-1.8,3.9-2.2.5-.3,4.2-1.4,5.3-2.3,2.3-1.2,7-6.3,7.3-2.1.1,3.5,3.3-.3,5-2.8,1.3-2.5,4.8-4.4,6.8-2.1,2.1-1,4.6-1.1,6.9-.2,3.7.2,7.4-.1,11.1-.2,2.7,2,7.1-3.8,6.8-1.4,3.4-2.1,6.8.5,10,8.2,10.2,11.4,22.2,10.6,34.9-.4,5.9,3.3,10.5,2.8,16.2-.3,3.3-2.3,7.6-1.4,9.5,2,4.1,2.4,9.1.8,11.5-2.4,3.7-1.8,6.9-1.9,10.4,0,2.5-1.6,3.5-2.9,5-2.7,2.9-3.3,7.3-7,9.4,2.2,5.2-3.6,5.7-5.2,8.7-1.7,3.1-.1,5.3-.1,7.9,0,2.3-2.3,4.6-2.2,7.6.2,18.1.1,36.1,0,54.2,0,2.9.6,3.9,3.8,4.7,2.2.5,2,4.4.5,6.3-6,7.8,2.6,12.9,3.3,19.4,3.6,1.2,7.2,2.4,10.6,3.5,2.8-4.2,4.6-10.1,8.4-11.9,5.7-2.7,5.6-7.9,9.4-12.7,1.4-1,4.3.5,7,0,2.5-.5,3.9,1,5.1,2.6,5.7,7.4,8.1,16.4,10.8,25,1.1,3.5.5,7.6-2.1,11.4-2,3-2.3,7-6.9,2.9-4.2,1.9-8.3,3.7-12.5,5.6-.7,6.5-5.6,3.8-9.3,4.3-2.6,3.5-.1,7.8-1.6,11.5-2.8,2.9-4.1-1.4-5.9-1.3-1.9.2-.2,3.6-2.7,4.6-7.5,3.1-13.5,8.2-18.7,14.3-1.9,2.3-5.1,2.1-6.9,4.5,0,3.2,5.6,6.7-.2,10-1.2.7-2.3.9-3.4.6-1.3-.5-1-1.9-1.2-3.1-.3-1.5,4.8-2.7.7-3.9-4-1.2-3,2.5-3.1,4.7,0,.4,0,.8,0,1.2-1.1,1.7-2.8,1.1-4.4,1.3-6.8.8-7.4,1.4-7.9,9.4,0,.4.1,1.1,0,1.2-6.9,2.4-6,9.7-9.2,14.5-2.3,3.5-4,2.7-6.8-2.8-.6.5-1.2,1-1.7,1.6-2.3,2.3-5.1,4.4-6.8,7-1.4,2.2,3.6,5.1-.1,7.7,2.8,5.1-.2,9-4.1,10.3-1.6-1.3-1.9-4.5-.8-4.7.7-.1,0,.6,1,0,.5-.2.8-.9,1.1-1.5,0,0-.5-.5-1.5.3-2.2.9-3,1.8-3.1,3-.2,1.7-2.2,3.1-2.5,1.9-.3-1-.3-2.2-.7-3.2-.3-.8-1.2-.6-1.5.4-.5,1.5-.4,2.9,1.7,3.9.2,1.5,1.3,3.3-.6,4.8-2.5-2.4-5-4.8-7.6-7.2-1.7,1.6-4.5,4.6-5.6,1.2-1.2-3.5-3.6-5.2-5.6-7.6-2.3-2.7-5.4-4.6-5-9.2.2-2.2-2.2-4.7-3.7-6.9-4.2-6.3-4.8-9.2.3-14.2,5.8-5.7,8.4-13,12.2-19.7.8-1.4,1-2.9,1.7-4.2,1.4-2.9,5.9,1,7.1-2.8.9-2.8-3.5-3.8-2.1-7.5,3.1-8,5.3-16.5,4.5-25.2-.7-7.4,3.8-13.8,2.7-21.2-1.2-8.1-1.7-16.4-4.8-24-1.6-4.1,4-7.8-.3-11.4,2-2.6,1.5-4.9.2-7.9-1.1-2.7-.9-6.4,2.2-8.7-4.2-7-.3-15.5-3.3-22-1.9-4.1,1.6-6.8.6-8-4-5.1-1.1-9.5.1-14.2.6-2.1.9-4.9-1.7-6.6-3.1-2.1-3.2-6.2-5.6-8.7-7-7.3-6.5-17.1-9.3-25.8-.5-1.6,1.5-1.8,1.4-2.6-.7-5.9,4.3-11.1.8-17.7-2.4-4.5,3.7-9.4,2.2-14.9-1.3-5,.9-9.4,3.6-13.2,1.9-2.7-.7-4.8-.4-6,2.2-8,5.3-15.6,8-23.5,1.6-4.7,7.4-7.9,10.4-12.6.7-1,3.4-1.2,3-3.7-.2-1.7.3-3,1.6-4.3,3.3-3.1,8-5.9,9.2-9.7,1.2-3.7,1.6-7.6,3.9-11.2,2.3-3.5,3.5-7.6,5.4-11.8-7.1-2.6-10.9-8.4-14.7-14.4-5.2-8.1-9.1-17.3-18.9-21.7-3.1-1.4-5.2-5-7.6-7.3-1.3.3-2.4.2-2.8.7-1.9,2.5-5.2,3.7-5.8,7.4-.8,4.4-6.3-.3-7.9,3.7-.9,2.2-3.2,1.3-3.4,4.6,0,.2-.4.8-1.3.8-.6.2-.9.5-1.4.9-.6.4-.5,1.2.5,1.5.3.1,1-.6,1.5-1.5,2.2-.4,5.3-1.7,4.9,2.4-.6,2.3-2.3,2-3.9,1.9-5.6-.5-10.4.2-11.7,6.9-7.2,5.6-11,13-12.4,21.9-.2,1.3-1.1,3.6-2.4,5.1-3,3.6-2.3,7-.3,10.9,3.4,6.6,3,6.7-.2,14.3-1.2,2.9-4.6,7,2.4,7.5,3.8,7,8.8,13.1,11.5,21.1,2.7,8.3,3.5,16.7,5.1,25,1.6,8,1.2,15.8,1.9,23.6.3,3.4-.7,6.8,1.9,10.4,1.8,2.5,1.7,7.4-.2,10.3-1.6,2.4-1.6,4.4-1.7,6.7-.2,13.4-7.2,24-14.3,35.1.6,2,4.2,2.7,4.4,5.8-1.7.4-4.7-1.2-4.8,1.9-.1,2.6-1.6,5.9,1.2,8,4.1,3,3.5,6,1.3,9.9-.9,1.6-1.2,5.1,3,4.9,1.2,0,1.9,1.2,1.8,2.6-.1,1.4-.9,1.9-2.2,2.3-6.6,2.1-6.6,2.1-2.4,9,.6,1.1.9.5,1.8,0,6.8-3.7,11-9.3,12.6-16.8.5-2.3,2-2.4,3.5-2.1,1.2.3,1.8,1.6,1.4,2.9-.8,2.5,2.6,7.3-3.6,6.9-.3,0-.9.6-.8.8,1,2.7,5.4,7.1-2,6.3-4.8-.5-1.9,6.4-6.4,5.2-1.1-.3-2.2.8-1.9,2.4-2.4,1.2-4.8,2.3-7.1,3.4v8.8c4.1-2.8,8-3.3,12.2-1.1-.1,3.9-4.1,5.8-4,9.6-.3,2.9,4.5,3.6,3.8,7.7-3.3,1.2-6.9,2.4-10.4,3.7-1.2.4-2,1-1.9,2.5,0,2.4,1.6,2.3,3.3,2.5.6,0,1,.9,1.5,1.4-1.5,1.5-2.9,2.9-5.8,5.8,1.4.7,3,1.1,4.1,2.1,2.7,2.3,3.9,4.5-1.2,5.5-3.2.7-1,1.9-.2,3,.4.6.7,1.4.7,2.2-.2,3.2-7.3,4.6-2.4,9.2-1.7,3.1-1.7,6.9-2.8,9.9-1.3,3.5-1.3,7.5-3.8,10.8-2.3,3-.2,7.1-1.1,11-3,1.3-7,.4-8.6,5.5-1.2,4,0,8-1.5,11.8-2.2,1-4.3,1.1-6.7-.2-4.9-2.6-9.5-2.2-14.4.8-6.5,4-12.5,9.9-15.5,17.2-.3.7-.3,1.9-.8,2.1-10.6,3.7-11.3,15-17.3,22.3-2.5,3.1-.9,10.3-8.4,8.5,0,0-.2,2.3-.9,3.1-1.7,2-3.4,1.4-5-.3-1.8-1.8-3.9-5-.8-5.6,5.6-1.2,4.3-4.8,2.8-6.9-1.7-2.3-.8-4.8-1.8-6.7-2.1-3.7,3.7-5.8,1-9.5-2.2-3.1-.6-7.1-.8-10.7-.2-3.7.7-7.6-.3-11-1.2-4.1,4.1-7.3.4-11.7-2.2-2.6,3.3-6.3.5-9.8,1.6-1.1,1.6-1.8.3-3.6-3-4.1.9-4.2,4.4-5.3-3.4-3.2-7.4-6.2-3-11.3,1.2-1.4,0-4.8.2-7.2.4-3.8-1.3-7.8,2.1-11.6,1.3-1.5,1.4-5.7-.5-8-3.1-3.7-1.7-7.9-1.4-11.6.6-6.9.5-9.2-3-13.9,2.6-3.3,5-6.8,9.8-7.8.3-1.9-1.8-2.2-2.5-3.5-2.1,1.8-6.2.5-6.8,4-.4,2.4-3.5,3.4-2.7,6.4.7,2.4-.4,4.1-3.1,3.6-2.1-.4-2.3-2.7-1.6-3.8,2.7-4.5-2.2-11.5,4.7-14.5,1-.5,2.1-1.1,3.1-1.3,6.6-1,6.6-.9,5.7-7.4-1.2.7-1.1,1.8-1.3,3-.4,2.2-2.2,2.2-3.7,1.7-1.3-.4-1.5-2-1.1-3.1.6-1.8,2.8-2.7,2.5-5.2-.2-1.9,0-3.1,1.3-4.9.9-1.2,6.7-3.9,5.9,2.7,0,.2,0,.4-.3.5-.6.2-1,.7-1.6,1.1-.6.4-.5,1.2.5,1.5.3.1.9-.7,1.4-1.6,5-3.6,1-8.3,2.8-11.9-4.2-.9-2,2.4-3.3,3.3-1.6,1-3.4,1.3-4.1-.4-.7-1.9-.9-3.8-2.7-4.9,1.6-2.9,4.5-4,9-5.9-6.5.9-7.6-4.6-11.5-5.3-3-.5-3-2.2-2.1-4.1.9-1.8,2.3-.9,3.1-.8.7.2.6-.3,1.3.3.4.3,0,.2.5,1.2.2.5.6.3,1.1.6,0,0,.5-.5-.3-1.5-.8-5.3-4.7-8.5-3.8-15.5-2.4,5.2-3.5,4.4-4.8,2.9-1.1-.4,2.4-7.2-2.3-13.1-.6-.8,0-2.4,0-3.6,0-9.8,0-19.6,0-29.4,0-3.6,5.4-19.2,7.8-22.5,2.2-3,6.1-7.7,3.6-9.8-5-4.3,5.1-8.2-.8-11.4-1.3-.7-1.1-2.6-.5-3.2,2.5-2.3,3-4.1.5-7-1.3-1.5-1.6-5.4-.5-6.8,2.8-3.6,1-8,2.5-11.3,1.8-3.9-.3-6.9-.3-10.3,0-2,.6-3.7,1.3-5.6,2-5.4,4.7-9.3,4.4-16.5-.2-.6.2-.4.3-.4.5,0,.8-.9,1.1-1.5,0,0-.5-.5-1.5.4-3.9-3.9-4.1-4.2-.5-6.1,1.9-1,3.3-2.4,4.5-3.8.6-.7,1.1-2.9-1.4-3.3-5.4-1-5.5-1.1-5.8-4.5-.8-8.6-3.5-16.8-2.8-25.5-2.6,0-4.2,0-5.9,0-1.6,0-3.4.3-3.7-2-.2-1.8.5-2.9,2.6-3,3-.2,2.8-2.4,1.6-4.2-2.7-4.1-7.1-7.2-11.4-7.7-4.7-.5-9.8,1.6-14.6,3-2.9.9-1.9,5.5-4.5,6.4-9.6,3.6-11.7,11-10.8,20.2,0,.6-.7,1.3-1.1,2.1-.9-.8-1.7-1.6-2.9-2.7-2.8,6.8-5.6,13.4-8.2,20.1-.2.5.4,1.8.9,2,1.4.6,1.6-2.5,3.4-1.4.6,2.3,1.5,4.7-.6,6.7-.9-.8-1.7-1.6-3-2.6-.8,7.6-4.4,14.5-3.3,22.2-3.5,3.8.3,7.6.1,11.5-.4,9.4-.1,18.8-.1,28.8v-.5c-.6.2-1.3.3-1.9.7-.7.4-.5,1.2.5,1.5.3.1,1-.7,1.4-1.6,2.1.6,2.3-4.2,4.7-2,1.4,1.4,3.4,2.5,2.6,5.1-.5.4-1.1,1.1-1.7,1.3-9.1,2.3-10.2,4.6-6.3,13,1,2.1,1.6,4.3,3.5,5.9,13.3,11.8,23,27.1,36.4,38.8.9.8,1.7,1.8,2.6,2.6,3,2.4,3.8,5.3,1.6,8.4-2.4,3.4-1.8,6.6-.5,10,2.1,5.4,4.3,10.7,4.4,16.6,0,.3,1.3.6,2,.9.4,2.3-1.3,5.5.9,6.8,3.5,2.1-2.2,3.6.1,5.3,4.2,3-1.9,7.1,1.2,10.9,1.2,1.4-4.3,2.2-4.4,1.4-.2-.6-.6-1.1-.9-1.7-.4-.6-1.2-.5-1.5.5-.1.3.5,1,1.5,1.5,2.2,3.4,4,6.8,5.6,10.2-3.8,3-.3,6.2.2,9,.8,4.6-2,5.4-5,6.5,1.3,3.9-1.2,7.9-3,9.7-3.9,4,2.5,6.2.4,9.4-.6.8,0,2.3,0,3.6-8.6,1.7-13.6,7-17.5,14.5-2.2,4.2-3.9,9.9-9.8,11.1-3.6.7-1.7,5-4.6,6.3-.8.4-.5,3.5,1.6,3.5,4.2,0,3.2,2.9,3.1,5.1-.3,4.1-3.6,1.8-5.6,2.4-.3.1-.7.3-1.1.5-1.3,2.6-1.7,6.5-.3,8,4.6,5.2,1.5,9.7-.5,14.1-1.2,2.8-4.2,5-.2,8,1.2.9,0,2.9-1.3,4.1-5.1,4.7-6.3,10.6-5.9,17.3.2,3.8,1.1,7.9-2.1,11.1,2.1,1.9,3.4,0,5.2-.7,2.5-.9,4.1,1.7,4.2,3.9.3,4.5.1,9,.1,13.5-1.6,2.7-4.6.5-6.6,1.8-1.5,2.2-.2,4.7-.8,7-1,3.6,2.6,5.5,2.7,8.8,0,3.1-2.7,4.5-3,7.6-.5,5.1,3.7,6.9,5.6,10.5-8.2,7.9-6.3,17.8-4.1,26.8.9,3.6.4,4.8-1.5,7-3.1,3.6-4,7.3.2,10.8,0,.8-.1,1.6,0,2.4.8,4.2-5.6.8-5.1,5,.3,2.2.4,4.5-.6,7-2.1,5.3-4.1,11.2-8,14.8-7,6.3-10.2,14.3-13.5,22.6-1.7,0-2.5.8-2.5,2.5-3.8-.2-1.8,3.7-3.7,5.1-2.1,1.6-1.7,8.3-6.8,2.8-3.9,1.9-8.4,3.2-11.7,5.8-5.2,4.2-11,6.8-17.3,8.3-2.3.6-4.2,2.3-4.4,3.6-1,4.9-2.4,5.2-6.2,2.1-1.6-1.3-5.2.5-11.5,4.3-5.7-.4-11.8,1-15.1,4.7-3.2,3.6-10.8,0-10.5,7.4-3.7-1-3.1-5-5.3-7.1-1.3,1.5-2.6,3.2-5.1,2.3-5.6-2.1-8.6-8-14.5-9.7-1.6-8-9.5-8.3-14.7-11.8-12.3-8.4-23.5-18-33.6-29.1.2-5.3-.3-10.6,2.2-16.1,2.2-4.8-1.8-11.2,2.6-16.2.6-.7.3-2.4,0-3.6-1.7-10.2,3.4-19.1,5.6-28.5.2-1,1.7-1.9,1.8-2.9.2-4-.7-9.3,4.5-9.8,4.1-.4,1.8-8.1,7.6-5.4,2.1,1,3.1-2.2,4.8-3.1,3.4-1.7,6.3-5,10.6-4.2,2.8.5,5.3-.7,6.1-2.9,2-6,7.7-5.8,11.9-6.7,5.9-1.2,12.8-1.8,18.3,0,6.4,2.2,12.5,1.8,18.8,2,6.2.3,9.2,2.4,11.2,8.4.4,1.1.2,2.4.8,3.4,2.8,4.6,1.7,10.3,6.2,14.9,3.2,3.3,5.2,9,6.3,14.5.4,2.1,1.3,4.4,1.5,6.7.2,2.2,0,4.3-3,3.9-3.2-.5-1.9-4.4-.9-4.9.5-.2.8-.9,1.1-1.5,0,0-.5-.5-1.5.4-5.3,3-3.9,8.6-7.2,11.3-1.8,1.5.3,1.9.8,2.6,1.2,1.5,1.4,3.3-.2,4.1-2,1-3.9.6-4-2.4,0-2.4-2.9-2.7-3.3-2.1-2.2,4.1-6.8,1.1-9.7,4-2.4,2.4-6,2-9.9,1.2-8.9-1.8-9.2-1-11.9,8.5-.2.7-1.1,1.2-2.2,2.3,4.4,4.2,8.2,9,14.4,11.2,3.3,1.2,6.4,2.3,10.1,2.6,4.6.3,9.9-2.5,13.8,2.3,3.9-1.5,8-2.5,11.7-4.5,2-1.1,3.8-2.4,6-3.4,9-4.1,12.5-12,13.1-21.4.3-5.1,0-10,2.1-15.2,1.3-3.3,1.4-8.3-1-12.8-2.4-4.5-2.9-10.5,2.6-14,4.4-2.7,2.3-8.4,6.1-11.2-3.4-2.6-11.3-3.1-4.9-10.5.6-.7,0-2.3-1.1-3.2-2.1-1.5-1.9-4-1.2-5.6,3.1-7.3,2.1-14.9,2.4-22.4.1-2.8.5-11.9-1-13.5-3.1-3.4-.8-5,1.3-6.9,3.4-3,1.5-3.5-1.6-3.5-2.3-8.1-9.8-10.9-16-14.5-3.6-2.1-4.4-5.1-6.3-7.9-1.7-2.6-7.9-1.5-6-7.2.5-1.5-.7-1.9-1.9-2.4-8.5-3.8-16.4-9.4-26.5-7.4-1.6.3-3.3,0-4.8,0-4.8-4.2-8-10.6-15.5-10.5-4.8-6-11-11.4-12.7-19.2-1.2-5.8,1.8-11.3,4.7-16.4,6.7-11.6,14.9-21.9,25.2-30.4.6-.5,4.6-10,4.2-11.4-1.1-4.7,1.3-8.5,3-12.4,4.6-10.6,5-13.1,4.6-24.4-.3-7.5-1.3-15.2,4.3-21.6,2.2-2.5-1.2-6.6,1.9-9,.8-.6,3.4.2,3.1-.9-1.5-6.3,5-10,5.1-15.1.1-5.8,2.4-10.6,3.8-15.8,2.8-10.5,5.5-21,6.4-31.9,1-11.8-4.3-21.8-8.4-32.3-3.9-10.1-9.9-19-15.6-28-5.6-8.8-11.1-17.6-16.3-26.6-5.2-9.1-12.8-17.9-11.5-29.7-5.2-4.7-1.2-9.5.2-13.9,1.1-3.5,1.6-7.2,1.9-10.6.4-4.1,1.6-8,3.3-11,2.2-3.8,2.4-8,4.4-11.8,1.8-3.4,7.2-13.5,10.8-16.5,1.6-1.3,1.5-2.4,1.7-4,.4-3.5-2.2-8.5,4.3-9.1-2.9-3.3.6-5.8,1.3-8.5.8-2.9,4-5.4,3.9-8.1,0-3.9,2.8-6.3,3-10.1.5-7.7,4.8-14.7,4.7-22.6,0-3.1,4.8-.8,5.3-5.1.5-4.2,5.4-7.7,4.5-12.8-.8-4.6,5.6-5,4.9-9.1-.6-3.8,1.5-6.8,2.6-10.1.4-1.3,1.1-2,2.6-1.9,2.4.2,2.5-1.7,2.3-3.3-.9-7.4.7-12.5,4.2-22.1,2.2-6,6.6-10.3,9.1-16,3-6.7,5.9-13.1,6.7-20.7.7-7.1,3.7-13.9,7-20.4,3.8-7.5,3.8-7.5,12.1-4.4.2-2-.9-4.1.7-6.3,2-2.8,8.8,0,13.1,0,1.1-3.5,2.8-6,5.3-8.1,2.9-2.6,5-4.4,6.2,1.5.6,2.8,4.5.2,7.2,2.4-.6,3.9-4.1,8-2.2,12.7.8,1.5,2.2.9,3.4.9,1.6,0,3.4-.3,3.7,2,.2,1.8-.4,3.1-2.6,3-3.2,0-6.2-.3-9,2.3-1.6,1.5-3-1.7-5.7-2.1v28.2c0,.4,0,.9,0,1.2,1.1,4,6.7,7.4,4.3,11.2-2.9,4.5-1,8.7-1.8,12.9-1.2,6.1,3.2,11.3,2.7,17.5-.5,5.8-1.4,11.8,2,17.6,1.4,2.4.2,6.4.2,9.7s-.9,4.9.2,6c5.1,5.4-.5,13.9,6.6,18.1,1.1-1,2.8-2.6,4.6-4.3,1.5,3.1,1.2,6.2.6,9.2-2.8,2-4.3-.2-6-2.1-1.9,8.7-1,55.7,1,63.7-1.7,1.9-4.5-2.9-4-.7,1.1,4.6.8,8.4-.3,12.9-1.1,4.7-.3,9.8-.2,14.7,0,1.9-.9,4.1,1.4,6.1.6-3.9,3.3-6.2,5.9-8.7,2-2.7-6.5-3.4-4.8-5.1,1.2-1.2,2.3-2.1,3.3-1.5,2.7.5-1.2,2.7,3.9,2.9.2.9,0,.5.2,1,.2.5,1,1.2,1.4,1.1.1,0,.7-.7-.2-1.7,5-8.2,11.3-15.3,14.3-24.8,4.7-14.8,12.6-28.5,16.4-43.6,2.3-8.9,9.8-14.6,13.2-22.8.3-.7,3.6-1.2,4.4-.5,4.3,3.7,5.8-.4,7.6-1.9,8.9,2.7,16.1,7.8,21,15,4,5.8,8.5,11.3,11.9,17.2,2.6,4.4,6.7,7.4,9,12.1,1.6,3.4,3.5,8.6,8.6,9.8.4,0,1,1.7.7,2-3.1,4.4.6,7.1,1.9,10.7,1.3,3.6.1,8.1.8,12,.3,1.7,2.4,3.1,3.8,4.5,1.3,1.4,1.5,2.8.1,4.1-.2.2-1.6-1.4-2.5-1.5-1.4-.1-1.3,1.2-1.6,2.3-1,3.5,7.7,2.9,3,8.3-2.4,2.7,3,5,3,8.4,2.7-6,7.3-11.1,6.6-18.5-.2-2.6,1.1-4,2.6-6.6.3-.5.4-1.4,4.4-1.9"/>
  <path class="cls-1" d="M2292.4,477.5c-.3-.5-.6-1-.9-1.6-.3.3-.8.6-.8.8.1.6.5,1.1.8,1.7.3-.3.5-.6.9-.9M2289.5,468.9c-.5.3-1.1.6-1.6.9.3.3.6.8.8.8.6-.1,1.1-.5,1.7-.8-.3-.3-.6-.5-.9-.9M2315.9,248.7c.5-.3,1-.6,1.6-.9-.3-.3-.6-.8-.8-.8-.6.1-1.1.5-1.7.8.3.3.6.5.9.9M2238.9,376.4c.3.3.6.6.9.9.3-.5.6-1.1.8-1.7,0-.2-.5-.5-.8-.8-.3.5-.6,1.1-.9,1.6M2289.2,461.1c-.2-.8,1.4,0,1.1-1.2-.3-1-.3-2.2-.7-3.2-.3-.8-1.2-.6-1.5.4-.5,1.5,7.7,8.4,9.1,11.9,1.4,3.5-1,7.9,3.6,11.5-5.4-.3-9,1.8-12.8,3.8,3.8,4,3.8,3.9,9.6,3.9.7,0,1.9.3,2,.8.3,1,.5,2.3,0,3.3-.5,1-1.5,2.3-2.5,2.6-4.7,1.3-5.6,2.6-2.2,7.1,2.4,3.2-.7,6.2-4.5,7.3,4.5,4.7,10,8.6,11.7,15.6-3.2.2-6.9,2.3-7.1-3.4,0-1.2-2-1.4-3.1-1.1-1.3.3-1.7,1.4-1.6,2.8,0,2.5-.4,5.2,3.6,4.6,2.2-.3,4.1,0,3.9,3-.2,3.1-3.7.9-4.8,3.2,2.5,2.9,7,5.5,4.3,10.1-3.7,3.3-5.3-4-9-.6,2.6,2.2,2.2,5.2,2.2,8.2,0,1.7,0,3.4,2.5,3.2,0,4.5,1.4,9.7-.4,13.4-1.9,4-2.8,7.3-1,11,1.6,3.3,2.4,7.6,7.6,7.9,1.5.1,1.6,2.4.6,4.1-.5.8-2.7,2-1.2,2.4,5.8,1.3,5.3,6.8,7.6,10.3,4.6-2.6,11.2-3,11.3-10.5,0-.3.3-.7.6-1,3.4-3.8,8.1-3,9.1,2.1.5,2.6,1,4.5,3,6.2,6.2,5.6,11.8,11.6,13.3,22,3-8.8-1.6-16.6,3.6-23,.3-.4-.2-1.5-.4-2.2-2.8-12.6-2.7-14.3.2-26.6.6-2.6,1.2-5.8-.6-8.2-2.3-3-2.3-5.5,0-8.5,2.1-2.8,1.7-7,.5-9.4-2.7-5.6,1.1-11.5-2-16.9-.8-1.4.6-3.7,1.1-5.5,2.3-9.5,2.3-19.3.2-28.7-.7-3.1-1.2-6.2-1.3-9.2-.1-2.7-1.4-6.2.8-8.1,3.4-2.9-4.1-4.7,0-8,4.1-3.3-.9-10.3,3.9-14.3.4-.3.1-1.6,0-2.4-.1-1.6.2-3.6-.6-4.6-3.2-3.7-6.4-7.7-10.4-10.4-8.1-5.5-10.7-7.5-14.7-15.1-2.8,2.8-5.5,5.5-8,7.9-1.6-.7-2.3-.9-2.9-1.4-1.5-1.1-2.9-2.4-4.4-3.6-1.1,2-4.4,1.5-4.9,2.7-1.2,2.9-4.6,5.9,0,9.7,1.5,1.2,4.3,4.5,3.9,8-1.7,3.2-5.7-.2-7.4,2.7v6.2c-3.7.2-2.1,3.1-2.5,4.9-2.6.3-4.3,3.7-8.5,2.5M2364.3,685.5c-1.7.4-4.5-1.2-4.9,2-.3,2.4,0,4.8,0,6.9-2.3,1.7-4.4.6-6.4,1.1-3.7.9-7.3-.6-8.1-3.7-.8-3.5-4.9-6.2-2.1-10.9,2.4-3.9,1.7-12.3,1.9-16.9.3-7.6-.3-15.2.7-22.9.7-5-.7-11.1-.9-17.6-3,3.8-8-1.2-9.9,5.6.9.6,2.6,1.5,4.1,2.7,1.5,1.2,1.7,3.1,0,4.1-1.9,1.1-3.9.9-4.1-2.1,0-.7-.6-1.4-1.2-2.5-4.9,6.1-13.5,9.6-11.2,19.2-3.1,1.5-4.5.1-5.7-1.5-.4.2-.9.3-.9.5,0,4.1-2.9,6.1-5.3,8.8-1,1.2-2.6,3.5-3,6.1-.5,4-3.6-2.8-4.7.5-2.1,6.4-10.3,9-10,16.9,0,.5-1.4,1.6-1.4,1.5-5.8-5-8.9,5-14.3,2.6-2.1-.9-3.8.7-5.1,2.5-2.2-3.2-6.8-4.6-6.3-9.8.3-3.2-3-4.7-5.1-6.4-6.7-5.6-9.9-8.4-11.7-15.9-.9-3.7-6.1-.9-5.2-5.1-5.5-3.7-8.3-9.9-14.3-13.8-5.5-3.5-10.8-8.4-16.7-10.4-7.6-2.7-8.8-9.8-13.1-14.6-2.4-2.7,1.1-8.1,3.6-10.3,8.6-7.5,13.1-18,20.8-26,2.6-2.6,3.1-6.2,4.9-9.1-5.3-4.7,0-8.2,1.6-12.1.3-.9,1-1.2.2-1.8-2.9-2.1-1.7-5.2-1.6-7.9,0-2.2,3.2-4.4-.1-6.6,4.5-4.7-.4-9.3,0-14,.2-3.3-.2-6.6,0-9.9,1.7-16.6-4-32.9-2.5-49.5-3.2-6.8-1.8-14.7-5-21.3-3-6.3-5.2-13.4-13.7-15.1-1.5-.3-3.8-1.3-5-2.5-9.4-8.9-12.7-9.9-1.7-19.6,3.6-3.1,9-7,9.6-7,1.6,0,4-3,4.9-4,3-3.8,4.8-4.2,8.3-7.8,3.2-3.3,3.5-9.3,9.1-10.7,2.1-7.3,6.7-14,7.9-21.2,1.4-7.8,3.3-15,9.1-21.8-6.3-.8-9.8-2.8-12.6-8-2.7-5-5.4-8.6-1.4-13.7-5-3.5.5-6.7.4-10.1-.1-3.4-1-6.9,2.2-10.2,2.3-2.3-4.4-4.4-2-7.2,1.9-2.1,1.6-4.3,2.2-6.5,1.3-5.1,1.7-10.8,6.3-14.6.5-.4.5-1.6,1-2,4.6-3.7,1.5-9.6,4.4-14.3,2.2-3.4,7.7-6.2,5.6-12.5-1.3-3.9,5.8-5.2,5.4-9.9,6.1-4.2,8.6-13.2,18-13.2,1.2,0,2.2-2.3,3.5-3.3,2.8-2.2,7.3-2.5,8.9-.7,4.4,4.9,11.3,6.6,14.7,12,3.5,5.5,8.2,10.8,6.2,18.4-.5,1.7-.9,4,.8,5.7,1.4-.4,1.5-1.4,1.6-2.6,0-1.4.8-2,2.3-2.1,1.5,0,2.5.6,2.6,1.8.2,3.7.3,7.4,0,11.1-.3,3.1-3.1,1.6-5.4,1.9h.5c-.2-.6-.3-1.3-.7-1.9-.4-.6-1.2-.5-1.5.5-.1.3.7.9,1.6,1.4-1,3-2.5,6-4.1,9.1,1.3.5,3.2.6,4.1,1.6,1.7,2,.2,4-1.6,4.9-5.3,2.7-4.2,9.1-7.5,13-.8.9-2.4,5.9,3,6,2.1,0,1.7,2.3,1.7,3.8s.2,3.3-2.2,3.5c-2.1.1-2.8-.9-2.8-2.9,0-.7-.7-1.3-1.2-2.1-.9,1.7-1.6,4.7-2.6,4.7-3.4.3-5.4,2.2-5.9,4.9-.4,2-4.6,4.3-.2,6.5-1.2,1.2-2.3,2.3-3.5,3.5-5.2-5.5-5.8,4.5-10.4,3.2-1.3-.4-.6,4.3-.8,6.6-.1,1.4-.6,2.5-1.8,2.6-1,0-2.4-.4-3.1-1.2-.8-.8,1-3.4-1.8-3-.4,0-.4,2.2-.9,3.1-.9,1.7-1.7,0-2.6-.3-6.5-1.7-8.4-1.2-9.4,4.6-.9,5.3-2.4,5.2-5.8,2.3-.6-.6-1.4-.5-1.7.6-.3,1.1-.6,3.2.6,3.2,7.2-.2,7.6,6,10.1,10.2,2.8,4.6,5.6,9.2,8.7,13.6,4.1,6,8.2,12,11.2,18.7.6,1.4.8,3.3,1.8,4.1,12.2,9.3,16.7,23.2,30.8,32.6.1.2.2.4.7,1.5.2.5.9.8,1.4,1.1,0,0,.5-.5-.3-1.5-2.3-4.6,1.2-7.2,1.9-10.7.4-1.9,0-7.9,5.5-7.3,1.5-4.7,2.3-10,8.6-11,.9-9.6,8.5-14.7,13.6-21.6,2.2-2.9,4.3-7.5,3.7-11.9-.4-3.5,1.2-4.5,4.3-5.5,12.5-4.4,16.3-1.4,23.2,8.9,6.5,9.8,9,21,14.4,31.1,2.2,4.1,4.1,8,9.2,9.5,3.2-1.7,4-5.8,5.6-9.1,1.6-3,1.4-8.1,3.6-9.3,3.3-1.8,5.4-4.6,8.4-6.4,7.9-4.9,14.5-10.8,19.1-19.1,1.8-3.3,4.8-3.1,8.4-1.6,9.6,4,14,12.5,17,21.2,1.5,4.2,3.2,8,6.4,9.5,9.4,4.3,16.1,11.5,23.1,18.6,2.7,2.7,5.3,5,9.4,4.1,3-.6,5.3.6,7.6,2.4,2.1,1.7,2.8-3,5.9-1.2,8.3,4.8,14.9,10.4,14.6,21-4,1.5-6.2,5.1-9,7.9-4.5,4.4-8.8,9.1-15.7,9.8,1,2.6,4.8,3.8,1.7,6.5-1.3,1.1-2.9-4-3.9-.4-.8,3-3.7,5-2.8,8.8,1.2,5.3-.8,10.9,2.3,16.4,1.6,2.8,0,7.3.3,10.9.6,6.4-2.1,13.1,1.4,19.1,1.5,2.5-.8,2.8-1.5,3.5-2.2,1.8-2.3,3.9-2.5,6.4-.3,3.7,3,7.9,2.1,9.9-1.6,3.5-2.3,6.8-1.9,10.3.5,4.5-3,10.5,4.5,12.9.5.2,1,3.9.3,4.4-3.1,2.3-1.2,6.4-3.1,8.6-2.7,3-.8,2.8,1.5,3.2.6,0,1.6.8,1.7,1.4.2,1.1.5,2.8-.9,3.1-.7.2-1.8-1.2-2.7-1.9-4.5,7,1.2,13.5,1.6,20.3.4,7.3-4.4,13.7-2.2,21.8,3.2-4.7,5.9-8.9,8.4-12.6,4-.3,2.9,2.6,3.7,4.1,4.8,9.9,9.8,19.8,14.2,29.9.8,1.8,2.3,3.1,2.7,5,.9,3.5-.6,4.9-4.8,4.3-3.4-.5-6.8,0-7.4,3.8-1,6.1-3.7,9.6-10.1,9.6-2.4,0-3,2.5-4.7,3.5.6,1.3,1.7,1.3,2.9,1.5,1.3.1,2,.9,2,2.4,0,1.6-.8,2.5-2,2.4-8.3-1.1-13.3,2.4-16.9,9.9-1.8,3.8-6.1,6.5-9.4,9.7-1.3,1.2-1.9,2.5-.8,4.6,3.5.5,4-6.2,8.6-4,0,5.3-4.7,6.9-8,9.1-2.2,1.5-5.6.8-7.4-2.1-2-3.2-2.6-7.7-7.7-7.7-.6-3.9-3.4-6.3-6.2-8.5-9.4-7.4-13.9-17.8-16.7-28.8-1-3.7-6.1-7.5-1.3-11.9.8-.8,1.1-1.2.3-1.8-4.3-3.4-6.5-7.8-3.1-12.5,3-4.1-1.2-9.5,2.6-12.4,4-3.1-2.2-5.1,0-7.9,2.4-3.1.9-7,1.1-10.6.2-3.3,1.4-7.6-.2-9.6-3.3-4.2-2.1-8.5-2.1-12.8-.2-17.3.4-34.5-.3-51.7-.3-6.6,3.1-12.3,2.8-18.7-.3-6.1.1-12.3-.1-18.5-.4-11.3-4.6-21.1-12.3-29.4-1.9-2.1-4.2-3.9-6-6.2-5.3-6.5-11.3-8.2-19.4-3.1,3.9,3.2,3.2,7.7,3.2,12.1,0,16.4-.2,32.9,0,49.3,0,5-1.6,10.3,2.2,15.2,1.1,1.4.8,5.2-.3,7-4.3,7.2-2.1,13.8,1.4,20,1.4,2.6,2.1,3.8,0,6.1-3.9,4.1-3.3,9.5-3.3,14.6,0,16,0,32,0,48.1s.7,6-.2,8.6c-1,3,3.6,4.5,1.3,7.1-2.4,2.7.9,4.4.8,6-.2,3.3,4.5,4.2,2.8,7.6-1.5,2.5-4.5.2-6.5,1.7-1.2,2.2,6.1,5.8-1.8,7.3-4.3.8-10.2,4.2-10.8,8.4-.8,5.6-2.9,5.5-7.3,6.4-4.7,1-8.6,4.8-13.3,6.3-.7.2-1.8,1.3-1.7,1.7,2,7.1-4.2,9-7.7,12.7-.6.7,0,2.4,0,3.6"/>
  <path class="cls-1" d="M2703.7,586.5c.3-.3.6-.6.9-.9-.5-.3-1.1-.6-1.7-.8-.2,0-.5.5-.8.8.5.3,1.1.6,1.6.9M2721.5,593.4c-.3-.5-.6-1-.9-1.6-.3.3-.8.6-.8.8.1.6.5,1.1.8,1.7.3-.3.5-.5.9-.9M2679.6,595.9c-.3-.5-.6-1-.9-1.6-.3.3-.8.6-.8.8.1.6.5,1.1.8,1.7.3-.3.6-.6.9-.9M2740.7,519.9c1.4-.8.9-2.2.8-3.3,0-.3-1.2-1-1.5-.9-1.4.6-.9,2.1-.8,3.2,0,.4,1,.7,1.5,1M2609.4,406.8c-6.9,8.9-13.8,17.7-13.3,29.9,0,1.6.7,3.9-.1,4.8-5.5,6,.8,14.5-4.4,20.4,2.9,6.7-1.6,13.3-.5,19.9.3,2-1.1,4.5.7,5.8,6,4.1,4.2,10.1,4.1,15.6-.1,6,.5,11.9,2.7,17.4,1.2,2.9,2.9,5.5,2.4,8.9-.5,3.1,4.1,4.5,2.5,8.1-1.5,3.4,2.2,5.6,2.8,8.7.5,2.8,3.7,5.1,4.4,7.9,1.3,5.3,7,7.1,8.6,12.5,3.4,11.1,12.9,17.9,20.7,25.9.6.6,1.2,1.6,1.8,1.6,8-.2,15.4,4.3,23.6,2.6,2.3-.5,3.6-2.2,4.5-3.8,1.8-3,5.1,3.4,4.8-.3-.5-4.9,4.8-5.5,4.9-7.6.1-3.9,2.9-6.4,3.6-9.8.3-1.3,1.2-3.4,1.9-4,2.7-2.3,8.2-3,2.6-8.2-.5-.5,3.8,0,4.4-2.3-1.7-3-8-4.5-2.6-9.7,1.2-1.2,1.3-4.6-1.2-6.5-3.1-2.4-5.3-5.1-1.2-8.5-3.5-2.3-1.4-6-2.4-8.9-.9-2.5-4-5.6-2.1-7.4,3.4-3.3,0-5.5-.4-8-.5-4.2-2.4-8-2.5-12.5,0-4.1-2.6-8-2.7-12.4,0-1.4-2.5-3.8-5.6-3.7-1.6,0-1.2-2.6-1.3-4.2-.1-1.9.2-3.7-1.2-5.7-8.7-11.4-13-25.4-23.1-36.1-5.1-5.4-9.9-10.9-15.6-15.8-5.3-4.5-7.1-12.4-13.2-16.7-3.1,1.7,1.5,6.3-3.1,7.1-4,.7-2-3.7-4.5-5M2709.6,278.6v-3.7c-.6-.3-1.5-.9-1.7-.7-5.1,4.3-9.6,4-14.5-.6-6.4-5.9-13.4-11-19.5-17.2-14.1-14.1-28.2-28.2-42.7-42.7-6.5,4.2-9.3,10.5-12.9,16.4-2.2,3.7-6.9,6.2-5.3,11.4-1.5-.3-1.8.8-1.9,2-.2,1.6.1,3.2,2.4,3.1v13c1.8-1.6,2.6-2.6,3.5-2.8,1-.3,2.6-.2,3.2.4.6.6.8,2.8.4,3.1-5.5,3.5-4.6,9-4.6,14.2,6,1.4,4.1,8.4,8.2,11.2,2.6,1.8,4.5,4.4,5.2,7.8,1.8-1.7,3.5-3.3,5.2-4.9,1.9,1.9,1.4,3.6-.4,5.2-1.4,1.3-1.7,3.1-.1,4.1,3.6,2.3,3.9,6.7,6.8,9.6,7.2,7,14.4,13.9,20.2,22.3,5.4,7.9,15,12.3,19.2,21.6.6,1.4,3.3,1.7,4.9,2.7,4.7,2.9,11.3,3.1,13,10.2.4,1.9,2.2-3.3,4.2-.6.9,1.3,2.1,2.9,3.5,3.4,7.6,2.9,11.6,9.1,15.5,15.6,1,1.7,0,5.1,4.1,4.7,1.2-.1,3,2.4,4,4.1,2.6,4.2,2.4,9.4,6.3,13.5,3.2,3.4,5.3,8.7,5.8,13.4.5,5.4,4.5,9,5.2,13.9.6,4.6,0,9.2,2.2,13.9,1.6,3.5.8,8.4-1.9,12.5-1.3,2-4,4.2-2.7,7.5-1.5-.3-2.3.6-2.4,1.9-.2,1.6.1,3.2,2.4,3.1v10.9c-.6.2-1.3,1.8-1.9,2.2-.7.4-.5,1.2.5,1.5.3.1,1-.7,1.4-1.6q4.9,0,4.9,6.9c-2,.4-2.4-1.8-3.8-2.4-1.9,2-1.6,4.6-.5,6.5,2.7,4.9,3.7,9.1-2.8,11.6,3,1.7-7.4,5.9,1.3,6.9,1.5.2,1.2,4.1,3.3,5.8.8.7.5,3.3-1.8,3.5-5.9.6-2,5-3,7.4-2.4-.2-2.7,1.5-2.4,3.2.8,4.6,2,9.5,6.7,11.4,2.3.9,3.4,1.5,3.1,3.9-.5,3.4-1.9,6.5-4.6,8.6-1,.7-2.5-.3-2.7-1.5-.4-2.8,0-5.6,2.1-8.1q-7.3,3.3-8,17.1c-1-.8-1.7-2-2.6-2.1-1.3,0-1.8,1.3-1.4,2.4.6,1.4,1.7,2.5,2.4,3.9.6,1.3-.3,2.3-2.1,2.2-.6,0-1.2-.9-1.7-1.4-2.1,3.8-4.1,7.4-3.7,12,.1,1.6-1.5,3.4-2.3,5.6v-.5c-.6.2-1.3.4-1.9.7-.7.4-.5,1.2.5,1.5.3.1,1-.7,1.4-1.6,3.5.7,5.4-3.7,9-2.9,1.2,3.9,2.9,7.9-4.2,7.3-2.4-.2-2.3,1.6-2.3,3.3.1,3.6-1.1,6-4.6,3-3.5-3-5.6-.7-6.6,1.6-1.2,2.7-4.1,4.9-3.5,8.3.4,2.5-1,4.2-2.7,4.9-8.3,3.2-10.2,9.8-9.6,17.1-2.2,2.8-2.9-2.8-4.7,0-1,1.5-3.1.9-4.1,1.8-1.4,1.2-3.6,2.1-3.5,4.6-.7.3-1.9.4-2,.8-.3,1.5,1.5,1.7,2,2.7.2.5.9.8,1.4,1.1,0,0,.5-.5-.3-1.5-1.1-1.5-1.1-2.4-1.1-3.2,1.7.4,4.6-1.2,4.8,1.9.3,3.2.9,7.2-.7,9.5-2.2,3.2-1.9,4.8.6,7.1.6.5.7,2.4-.6,3.2-1.6,1-2.9.5-4.2-.8-3.6-3.3-3-7.1-1.3-10.9.5-1,1.6-2.4.1-2.5-2.3,0-3.6-2.4-5.1-2.3-2,0-.2,4.2-3.9,4.8-4.8.8.6,2.3.3,3.5-.6,2.2,2.1,5.7-3.1,6.4-2.4.4-2.3,5.5-5.7,7.1-1-1.1-2.6-2.1-3.1-3.5-1.1-3.3-2.6-3.7-5-4.1-5.9-.9-7.3,6-12.4,6.3-.4,0,3.1,1.5,1.4,3.2-1.3,1.3-2.9.7-4.2-.7-.4-.4-1.1-.5-1.7-.7-.8,6.6-7.9,4.6-11.5,8.1-3.1,3.1-9.5,3.1-11.5,8.6-4.2,1.1-5.6,5.6-10.1,8-3.2-5.1-6.5-10.3-12.6-12.3-.7-.2-1.8-1.3-1.7-1.7,1.6-5-4.2-5.5-5.2-8.8-1.2-3.8-4.9-5.8-6.4-9.7-1.4-3.5-5.6-5.8-8.4-8.9-8.5-9.2-15.2-19.9-22.1-30.3-5.2-7.9-10.8-15.8-12.7-25.6-.4-2-3-3.6-4.5-5.5-3.7-4.9-1.9-11.3-4.2-16.7-2-4.9-8-8.3-5.9-14.8-4-11.8-3.9-24.4-7-36.5-1.4-5.6-2.8-12.8,2-18.7.6-.7.3-2.4,0-3.6-1.7-7,3.3-13.2,2.4-19.9-.9-6.6,3.6-12.1,2.8-18.8-.3-2.6,1.7-6,3.7-8.2,8.9-10.4,14.5-22.7,20.6-34.7,3.7-7.3,8.9-13.5,12.6-20.7.3-.6,1.1-1.1,1.8-1.3,7.8-1.9,11.2-9.6,17.5-13.6,4.7-3,3.3-4.3-1.2-9.2-4.9-5.5-13.7-8.3-13.3-17.8-5.9-.5-4.9-6.1-6.5-9.4-1.8-3.7-.6-8.7-3.4-12.1-2.9-3.5-3.7-8-4.4-11.7-1-5.2-4.1-9.2-6-13.7-1.3-3.2-3-7-1.7-8.9,5.1-7.2,1.2-13.9-.6-20.2-1.1-4-3.9-7,.3-10.4,1.4-9.7,5.3-18.2,11.1-26.3,2.7-3.8,3.4-9.3,4.5-14.1,2.6-10.6,7.9-20.1,14.3-28.5,5.6-7.5,9.7-16.3,17.1-22.6,4.1-3.4,8.1-6.2,13.6-5.9,4.8.2,9.1-.6,11-6,.7-1.9,2.7-1.4,4.2-1.4,3.7,0,7.4,0,11.7,0,4.6,4.6,9.5,9.5,14.4,14.4,1.4,1.4,3.5,2.7,4,4.5,3,10.4,12.2,15.6,18.7,23.1,1,1.1,1.9,2.9,3.9,2.4,6.9-1.5,12.9,4.6,21.4,3.9,1.6-2.3,3.2-4.7,4.9-7,1.4-1.9,4.4-2.7,2.8-5.9,16.1-1.4,21.6,1.6,27.9,12.8,1.8,3.2,1.8,6,1.9,9.1,0,2.8.4,4.2,3.8,4.7,1.9.2,1.9,4.4-.3,4.4-7.6-.2-7.3,5.3-8.3,10.1-1.6-.3-1.9.8-2.5,1.9-1.8,3.7,2.8,5.6,2.6,8.7-1.5,3.6-5.6,0-7.3,2.8.5,1.5,2.7,1.9,2.3,3.9-5.2,4.1-6.6,11-11.6,15.3-.8.7-.5.9.2,1.8,4,4.7-.7,5.8-3.4,7.6"/>
  <path class="cls-1" d="M225.3,120.4c-4.4-.8-3.5-9.3-10.1-7-3.2-3.1-6-8.4-9.7-9-6.4-1.1-9.5-5.5-13.5-9.2-6.8-6.2-5.3-14.5-5.1-22.4,0-1.2,2.1-3.3,3.3-3.3,4.4,0,8.4-1.5,12.4-2.9,1.3-.4,1.5,3.5,3.5,1.5,1.2-1.2-.3-2.7-.7-4.2-.7-2.7.9-6.4,3-6.9,2.7-.6,6.1-3.1,7.4-2.5,6.1,2.9,12.4-3.4,18.5,1,1.6,1.1,5.3-2.4,8.7.9,1.6,1.6,5.3,2.5,8.5,3.1,5.8,1.1,9.5,5.7,9.3,12.4,0,3.4-1.1,7.2,4.5,8,2.1.3,3.2,3.1,3,6-.3,3.7,0,7.4,0,11.1s.3,4-1.6,3.9c-6.1-.2-5.6,5.6-7.7,8.6-1.5,2.2-2.2,5.8-4.8,6.1-5.4.7-1.5,2.2-1.1,4,.2,1.1-3.5,1.7-3.7.5-1-6.3-6-4.8-9.2-4-2.2.5-3.3,2.1-5.5-.2-1.9-2-3.2,3-5.8,1.3-5.3-3.5-.6,3.9-3.5,3.2"/>
  <path class="cls-1" d="M162.2,55.1c4.6.5,1.9,3.3,1.8,6.9-2.7-4.1-7.1-2-10.3-4.5-1.8-1.4-1,2.8-1.6,2.8-7.5.7-14.4,6.6-22.4,2.4-3.8-2-9.8-1.1-10.1-7.7-5-3-6.2-9.5-11.9-12.2-5.6-2.6-5.2-9.2-7.2-14.1-.6-1.4,0-3,1.3-4.3,4-4,8.3-8.2,14.2-6.9,3.7.8,6.9-4.2,9.2-1,2.8,3.8,4.9,1.1,7.6.9,5-.2,10.6-2.1,14.5,3.4,1.6,2.4,2.3-.8,3.4-.9,4.7-.2,9.2-1.6,13.5,2.7,4.3,4.4,6.7,7.7,3.2,14.3-1.7,3.2-4.1,7.7-2.8,12.3-3.7.2-2.1,3.9-2.5,4.9-.6.2-1.3.4-1.9.7-.6.4-.5,1.2.5,1.5.3.1,1.1-.4,1.6-1.3"/>
  <path class="cls-1" d="M1794.3,853.3c0-2.3,1.9-4.2,4.2-4.2,0,0,2.2-.3,3.6,2.1,1.4,2.4,2.6,11.9,5.7,20-3.6-.9-7.4,3.5-8.5-3.6-.3-2.2-4.5,3-6-1.1-.2-.5-2.2,4.9-3.5.2-.4-1.5-1.3-4.1,1.4-4.9.6-.2,1.6,1.3,3,2.5v-10.9Z"/>
  <path class="cls-1" d="M1883.6,3.5c-2.9,2.9-5.4,5.6-8.1,8-.7.6-2.4,1-3.2.6-1.6-.9-1.7-2.6-.6-4.1.5-.6,1.6-1.1,1.6-1.7.3-7.6,1.7-8.1,10.3-2.8"/>
  <path class="cls-1" d="M2036,618c-1.6,3.4-6.1,2.9-8.3,5.8-2.1-1.4-1.9-4.2-1.1-5.3,2.9-4,3.2-7.5,0-11.4-.3-.4.5-2.5,1.2-2.9,1.8-.9,1.5,1.4,1.9,2,2.3,3.8,4.3,7.8,6.4,11.8"/>
  <path class="cls-1" d="M846.8,500.2q-7.8-4.3-7.9-6.9s2.8-7.3,2.8-7.3c2.4,2.7.1,6.2,1.7,9.9,2.6-1.7,1.6-5.4,4.2-6.3.6-.2,1.1-.6,1.7-.9.3.7.7,1.4.8,2.1.9,3.8-2.5,6.2-3.3,9.5"/>
  <path class="cls-1" d="M1200.3,317.6c0,1.7.5,4.8-2.8,7.1-1.2.8-2.3,1-3.3.7-1.2-.4-1.9-2.2-1.2-2.9,3.1-2.9,2.2-6.5,2.4-9.9,0-1.2.9-2,2.4-2,1.5,0,2.2.7,2.4,1.9.2,1.2,0,2.4,0,5.1"/>
  <path class="cls-1" d="M70.8,318.1c2.4,1.2,7-2.9,7.4,3.1.2,3.1,6.3.7,4.9,5-1.9,5.6-4.9-2.1-7.2.4-1.6,1.7-2.9,1.3-2.5-.9.6-3.2-2.1-4.9-2.6-7.5"/>
  <path class="cls-1" d="M60.5,329.8c5.4-.7,6.6,4,10.7,4.3-3.5,1.9-5.3,5.8-9.6,5.3-1.9-3.4-.3-6.7-1.1-9.6"/>
  <path class="cls-1" d="M1188,509.9c.8,2.7-2.7,3.4-2.7,6.2,0,2.8-3,1.5-4.8,1.8-1.5.3-2.4-.7-2.4-1.9,0-1.9-.8-5.2,1.2-5.2,2.8,0,3.7-2.8,6.2-2.8,1.5,0,2.1.7,2.4,1.9"/>
  <path class="cls-1" d="M1657.3,242c2.6,3.7,7.3,4.2,10.3,7.1,1.3,1.3,1.7,2.6.7,4.1-.3.5-1.3.6-2,.8-2.1.5-2.8-.3-2.5-2.4.1-.6-.5-1.4-.7-2.1-2.3,1.7-4.3,1.5-6-1-1.2-1.9-.4-3.8.2-6.5"/>
  <path class="cls-1" d="M1310.5,327.5c-2.3.3-4.6,1.4-6.6-.8-1.8-3.4,4.1-4.2,2.4-7.5,1-.4,2.1-1.2,3.1-1.1,1.2,0,2,.9,1.8,2.4-.3,2.3.7,4.8-.8,6.9"/>
  <path class="cls-1" d="M1313.7,747.2c.9,3.3-1,5.3-3.4,6.9-.7.5-2.2.4-3.2,0-1.4-.6-1.2-2.4-.7-3.1,1.1-1.6,2.9-2.7,2.5-5.1,0-.2,1.9-1.1,2.9-1.1,1.2,0,2.1.9,1.8,2.4"/>
  <path class="cls-1" d="M1437.1,510.6c6-.9,4.9,2.6,4.9,5.1,0,1.7,1,4.2-2.1,4.5-3,.3-2.8-1.9-2.8-3.9,0-2,0-4,0-5.8"/>
  <path class="cls-1" d="M2616,239.5c3.2.2.5-3,1.6-4.2,1.2-1.4,3.2-1.6,4,0,1.5,2.9-1.6,7.2-5.8,8.2-1.7.4-2.4-4.3.2-4"/>
  <path class="cls-1" d="M1858.8,813.8c3-.3,5.4-.2,5,4.1-.2,2.5-.9,3.2-3.4,3.4-4.3.4-4.4-2-4.1-5,1.7,0,2.5-.8,2.5-2.5"/>
  <path class="cls-1" d="M265.7,122.7c0,1.2.1,2.4,0,3.6-.2,1.2-.9,1.9-2.4,1.9s-2.3-.7-2.4-2c-.2-1.6,0-3.2,0-4.9,0-1.7.2-3.1,2.5-3.1,2.4,0,2.4,1.5,2.4,3.2v1.2"/>
  <path class="cls-1" d="M1202.8,450.3c0,1.3.3,3.1-1.9,3.3-1.7.2-3.2-.2-3.1-2.5,0-2-.1-4.1.1-6.1,0-.5,1.1-1.1,1.8-1.2,1.2-.3,2.7,0,3,1.3.4,1.5,0,3.2,0,5.2"/>
  <path class="cls-1" d="M1190.4,434c2,.4,2.4-1.8,3.9-2.3,2.2,3.2,1.6,5.9-1.3,8.4-1.3,1.2-2.7,1.9-4.2.9-1.7-1.1-.5-3-.9-4.5,1.7,0,2.5-.8,2.5-2.5"/>
  <path class="cls-1" d="M1460,684.9c-3.8.5-6.1,1.6-8.3-.8.3-.9.3-2.3,1-3,1.5-1.6,2.9-4.3,5.7-2.5,2.1,1.3,0,3.8,1.6,6.3"/>
  <path class="cls-1" d="M2532,425.3c4.3-1.3,5.1,2,7.3,2.9-1.6,1.9-2.7,4.8-5.4,4-4-1.2-1.1-4.9-1.9-7"/>
  <path class="cls-1" d="M2624,251.5c-1.5.2-3.1-.3-3.1-1.3.2-2.1-1.8-5,1.8-6,1.2-.3,3,.3,2.9,1.3-.4,2,2.1,5.1-1.6,6.1"/>
  <path class="cls-1" d="M1637.6,389.6c-1.5.2-3.1-.3-3.1-1.3.2-2.1-1.8-5,1.8-6,1.2-.3,3,.3,2.9,1.3-.4,2,2.1,5.1-1.6,6.1"/>
  <path class="cls-1" d="M2724.4,609.8c-.3,1.7.8,4.2-2.5,4.2-2.4,0-2.5-1.5-2.4-3.1,0-1.8-.8-4.2,2.5-4.3,2.4,0,2.4,1.5,2.5,3.2"/>
  <path class="cls-1" d="M2019,635.5c.2,1.5-.3,3.1-1.3,3.1-2.1-.2-5,1.8-6-1.8-.3-1.2.3-3,1.3-2.9,2,.4,5.1-2.1,6.1,1.6"/>
  <path class="cls-1" d="M2751.5,519.1c-2.3-3.5-3.8-5.5-4.8-7.6-.4-.9-.5-2.5.9-3.1.6-.3,1.6-.5,2.3-.3,1.2.3,1.8,1.1,1.8,2.6-.1,2.3,0,4.7,0,8.5"/>
  <path class="cls-1" d="M1427.2,426.7c2.7-.2,4.7-.4,4.8,1.6.2,1.8,1,4.2-1,5.4-1.3.8-3.3.6-3.7-1.2-.5-1.9-.1-3.9-.1-5.8"/>
  <path class="cls-1" d="M1197.8,856.9c.1,1.6.3,3.4-1.9,3.7-2.9.4-3.2-1.5-3.1-3.7,0-1.6-.3-3.4,1.9-3.6,2.8-.3,3.3,1.4,3,3.7"/>
  <path class="cls-1" d="M2032.8,479.7c2.1,3.1,3.9,5.7,5.9,8.5.2-.2-.8.9-2.6,2.7-.9-3.8-4.2-6.1-3.3-11.2"/>
  <path class="cls-1" d="M1306.3,491.7c.4,2.6-.2,4.3-3,4-2.2-.3-1.8-2.1-1.9-3.7-.2-2.3.3-4.1,3.1-3.7,2.1.3,2.1,2,1.8,3.4"/>
  <path class="cls-1" d="M1450.5,670.2c1.6,0,3.1,0,4.7,0,2,0,2.8.9,2.7,2.8-.1,2.2-1.8,1.9-3.3,2.2-4.3.6-4.4-2-4.1-5"/>
  <path class="cls-1" d="M2627.9,243.1c-2.2-2.4-3.4-3.5-4.1-4.8-.5-.8-.3-2.2,0-3.2.1-.4,1.3-.8,2-.8,2.3-.2,2.5,1.3,2.5,3,0,1.2-.1,2.3-.3,5.9"/>
  <path class="cls-1" d="M1871.9,806c-.3-.8-.8-1.5-.8-2.1.2-1.7-1.1-4.3,1.8-4.8.9-.2,2.7.4,3,1.2.9,2.2-.8,3.6-2.3,4.9-.5.4-1.1.6-1.6.9"/>
  <path class="cls-1" d="M1911.4,614.4c-.6-1.6-.9-2-.8-2.3.5-2-1.6-5.1,2.3-5.5.7,0,1.7.2,2,.7,1.8,2.9-.9,4.1-2.3,5.8-.3.3-.6.6-1.2,1.2"/>
  <path class="cls-1" d="M2663,667.6c-1.6.5-2,.7-2.3.6-2-.5-5.1,1.5-5.3-2.5,0-.7.3-1.7.8-2,2.9-1.6,4.1,1,5.8,2.5.3.2.5.6,1.1,1.3"/>
  <path class="cls-1" d="M2711.7,282.1c.6,2.8-.2,3.7-1.4,3.9-1.5.3-3.3.1-3.2-2.1,0-1.8-.9-4.6,1.3-5,1.1-.2,2.7,2.6,3.3,3.2"/>
  <path class="cls-1" d="M1997.4,665.8c1.3.4,2,.9,2,2.4,0,2.3-1.4,2.6-3.1,2.5-1.2-.1-2-.9-2-2.4,0-2.3,1.4-2.5,3-2.5"/>
  <path class="cls-1" d="M1198,298.4c-2.3.1-2.7-1.3-2.6-3,.1-1.2.9-2,2.4-1.9,2.3,0,2.6,1.4,2.5,3.1-.1,1.2-.9,2.2-2.3,1.9"/>
  <path class="cls-1" d="M1380.4,298.9c-.4,1.3-.9,2-2.4,2-2.3,0-2.6-1.4-2.5-3.1.1-1.2.9-2,2.4-1.9,2.3,0,2.5,1.4,2.5,3"/>
  <path class="cls-1" d="M2310.1,300.9c.3,1.4-.7,2.2-1.9,2.3-1.7.2-3.1-.2-3.1-2.4,0-1.5.7-2.3,1.9-2.4,1.7-.2,3.2.2,3,2.6"/>
  <path class="cls-1" d="M938.9,682.9c.1,2.3-1.3,2.7-3,2.5-1.2-.1-2-.9-1.9-2.4,0-2.3,1.4-2.6,3.1-2.5,1.2.1,2.2.9,1.9,2.3"/>
  <path class="cls-1" d="M2056.2,273.7c1.4-.3,2.2.7,2.3,1.9.2,1.7-.2,3.1-2.5,3.1-1.5,0-2.3-.7-2.4-1.9-.2-1.7.2-3.2,2.5-3"/>
  <path class="cls-1" d="M1903.2,22c.1,2.3-1.3,2.7-3,2.6-1.2-.1-2-.9-1.9-2.4,0-2.3,1.4-2.6,3.1-2.5,1.2.1,2.2.9,1.9,2.3"/>
  <path class="cls-1" d="M2678,660.9c1.3.4,2,.9,2,2.4,0,2.3-1.4,2.6-3.1,2.5-1.2-.1-2-.9-2-2.4,0-2.3,1.4-2.5,3-2.5"/>
  <path class="cls-1" d="M173,34.5c1.9,2.1,5.5,3,2.9,7.4-1.9-2.1-5.5-3-2.9-7.4"/>
  <path class="cls-1" d="M2295.8,315.6c1.3.4,2,.9,2,2.4,0,2.3-1.4,2.6-3.1,2.5-1.2-.1-2-.9-2-2.4,0-2.3,1.4-2.5,3-2.5"/>
  <path class="cls-1" d="M2068.4,273.8c.3,1.4-.7,2.2-1.9,2.3-1.7.2-3.1-.2-3.1-2.5,0-1.5.7-2.3,1.9-2.4,1.7-.2,3.2.2,3,2.5"/>
  <path class="cls-1" d="M2305.2,690.5c-2.3.1-2.7-1.3-2.6-3,.1-1.2.9-2,2.4-1.9,2.3,0,2.6,1.4,2.4,3.1-.1,1.2-.9,2.2-2.3,1.9"/>
  <path class="cls-1" d="M88.2,325.5c-2.3.1-2.7-1.3-2.5-3,.1-1.2.9-2,2.4-1.9,2.3,0,2.6,1.4,2.5,3.1-.1,1.2-.9,2.2-2.3,1.9"/>
  <path class="cls-1" d="M2167,323.5c-.4,1.3-.9,2-2.4,2-2.3,0-2.6-1.4-2.5-3.1.1-1.2.9-2,2.4-2,2.3,0,2.5,1.4,2.5,3"/>
  <path class="cls-1" d="M1464.2,662.9c-.1,2.1-.8,2.8-2.2,2.9-2.9.2-2.8-1.7-2.8-3.8,0-2.3,1.6-1,2.4-1.1,2-.3,2.6,1,2.6,2"/>
  <path class="cls-1" d="M1200.3,330.9c-.4,1.3-.9,2-2.4,2-2.3,0-2.6-1.4-2.5-3.1.1-1.2.9-2,2.4-2,2.3,0,2.5,1.4,2.5,3"/>
  <path class="cls-1" d="M1437.1,483.2c.1,2.3-1.3,2.7-3,2.6-1.2-.1-2-.9-1.9-2.4,0-2.3,1.4-2.6,3.1-2.5,1.2.1,2.2.9,1.9,2.3"/>
  <path class="cls-1" d="M1414.9,271.4c.3,1.4-.7,2.2-1.9,2.3-1.7.2-3.1-.2-3.1-2.5,0-1.5.7-2.3,1.9-2.4,1.7-.2,3.2.2,3,2.5"/>
  <path class="cls-1" d="M1175.7,332.8c.1,2.3-1.3,2.7-3,2.6-1.2-.1-2-.9-1.9-2.4,0-2.3,1.4-2.6,3.1-2.5,1.2.1,2.2.9,1.9,2.3"/>
  <path class="cls-1" d="M1686.2,660.4c0,1.6-.2,3-2.5,3-1.5,0-2.3-.7-2.4-2-.2-1.7.2-3.1,2.5-3.1,1.5,0,2.1.7,2.4,2"/>
  <path class="cls-1" d="M1999.3,653c0,1.6-.2,3-2.5,3-1.5,0-2.3-.7-2.4-2-.2-1.7.2-3.1,2.5-3.1,1.5,0,2.1.7,2.4,2"/>
  <path class="cls-1" d="M2006.8,647c-.1,1.9,0,3.8-.5,5.6-.4,1.4-2.1,1.1-3.1.8-1.3-.4-1.1-1.3-.2-2.4,1.1-1.4,1.7-3.3,2.5-4.9.5.3.9.6,1.4.9"/>
  <path class="cls-1" d="M2137.4,646.6c-.4,1.3-.9,2-2.4,2-2.3,0-2.6-1.4-2.5-3.1.1-1.2.9-2,2.4-1.9,2.3,0,2.5,1.4,2.5,3"/>
  <path class="cls-1" d="M68.4,345.7c-.4,1.3-.9,2-2.4,2-2.3,0-2.6-1.4-2.5-3.1.1-1.2.9-2,2.4-2,2.3,0,2.5,1.4,2.5,3"/>
  <path class="cls-1" d="M532.2,347.7c-2.1.1-2.8-1-2.7-2.8.1-2.2,1.8-2.4,3.3-2.1,2,.4,1.6,2.2,1.7,3.7.1,2.4-1.7.6-2.3,1.2"/>
  <path class="cls-1" d="M1631.9,344.8c-.1,2.1-.8,2.8-2.2,2.9-2.9.2-2.8-1.7-2.8-3.8,0-2.3,1.6-1,2.4-1.1,2-.3,2.6,1,2.6,2"/>
  <path class="cls-1" d="M2164.7,352.6c-2.3.1-2.7-1.3-2.5-3,.1-1.2.9-2,2.4-1.9,2.3,0,2.6,1.4,2.5,3.1-.1,1.2-.9,2.2-2.3,1.9"/>
  <path class="cls-1" d="M958.6,641.3c.3,1.4-.7,2.2-1.9,2.3-1.7.2-3.1-.2-3.1-2.4,0-1.5.7-2.3,1.9-2.4,1.7-.2,3.2.2,3,2.6"/>
  <path class="cls-1" d="M1627,359.6c-.1,2.1-.8,2.8-2.2,2.9-2.9.2-2.8-1.7-2.8-3.8,0-2.3,1.6-1,2.4-1.1,2-.3,2.6,1,2.6,2"/>
  <path class="cls-1" d="M275.5,104c-.4,1.3-.9,2-2.4,2-2.3,0-2.6-1.4-2.5-3.1.1-1.2.9-2,2.4-2,2.3,0,2.5,1.4,2.5,3"/>
  <path class="cls-1" d="M265.7,110.5c-.1,2.1-.8,2.8-2.2,2.9-2.9.2-2.8-1.7-2.8-3.8,0-2.3,1.6-1,2.4-1.1,2-.3,2.6,1,2.6,2"/>
  <path class="cls-1" d="M1897.1,113.5c2.4,1.9.3,4.3,2.1,7.3q-5.6-3.6-2.1-7.3"/>
  <path class="cls-1" d="M2423.5,639.2c-.4,1.3-.9,2-2.4,2-2.3,0-2.6-1.4-2.5-3.1.1-1.2.9-2,2.4-2,2.3,0,2.5,1.4,2.5,3"/>
  <path class="cls-1" d="M934.1,692.9c-2.3.1-2.7-1.3-2.6-3,.1-1.2.9-2,2.4-1.9,2.3,0,2.6,1.4,2.4,3.1-.1,1.2-.9,2.2-2.3,1.9"/>
  <path class="cls-1" d="M1306.4,515.9c-.4,1.3-.9,2-2.4,2-2.3,0-2.6-1.4-2.5-3.1.1-1.2.9-2,2.4-2,2.3,0,2.5,1.4,2.5,3"/>
  <path class="cls-1" d="M2729.3,256c-.1,2.1-.8,2.8-2.2,2.9-2.9.2-2.8-1.7-2.8-3.8,0-2.3,1.6-1,2.4-1.1,2-.3,2.6,1,2.6,2"/>
  <path class="cls-1" d="M1664,256.2c.1,2.1-1,2.8-2.8,2.7-2.2-.1-2.4-1.8-2.1-3.3.4-2,2.2-1.6,3.7-1.7,2.4-.1.6,1.7,1.2,2.3"/>
  <path class="cls-1" d="M2297.7,690.3c.1,2.3-1.3,2.7-3,2.6-1.2-.1-2-.9-1.9-2.4,0-2.3,1.4-2.6,3.1-2.4,1.2.1,2.2.9,1.9,2.3"/>
  <path class="cls-1" d="M1913.5,596.8c-1.6,0-3-.2-3-2.5,0-1.5.7-2.3,2-2.4,1.7-.2,3.1.2,3.1,2.5,0,1.5-.7,2.1-2,2.4"/>
  <path class="cls-1" d="M1055.3,690.5c1.3.4,2,.9,2,2.4,0,2.3-1.4,2.6-3.1,2.5-1.2-.1-2-.9-2-2.4,0-2.3,1.4-2.5,3-2.5"/>
  <path class="cls-1" d="M2033.4,583.3c2.1.1,2.8.8,2.9,2.2.2,2.9-1.7,2.8-3.8,2.8-2.3,0-1-1.6-1.1-2.4-.3-2,1-2.6,2-2.6"/>
  <path class="cls-1" d="M1622.1,520.3c1.4-.3,2.2.7,2.3,1.9.2,1.7-.2,3.1-2.4,3.1-1.5,0-2.3-.7-2.4-1.9-.2-1.7.2-3.2,2.5-3"/>
  <path class="cls-1" d="M1442,417.2c-.4,1.3-.9,2-2.4,2-2.3,0-2.6-1.4-2.5-3.1.1-1.2.9-2,2.4-2,2.3,0,2.5,1.4,2.5,3"/>
  <path class="cls-1" d="M2288.4,692.9c1.3.4,2,.9,2,2.4,0,2.3-1.4,2.6-3.1,2.5-1.2-.1-2-.9-2-2.4,0-2.3,1.4-2.5,3-2.5"/>
  <path class="cls-1" d="M1210.2,752.2c.3,1.4-.7,2.2-1.9,2.3-1.7.2-3.1-.2-3.1-2.4,0-1.5.7-2.3,1.9-2.4,1.7-.2,3.2.2,3,2.6"/>
  <path class="cls-1" d="M1632.4,456.2c1.3.4,2,.9,2,2.4,0,2.3-1.4,2.6-3.1,2.5-1.2-.1-2-.9-2-2.4,0-2.3,1.4-2.5,3-2.5"/>
  <path class="cls-1" d="M2742.1,231.8c1.3.4,2,.9,2,2.4,0,2.3-1.4,2.6-3.1,2.5-1.2-.1-2-.9-1.9-2.4,0-2.3,1.4-2.5,3-2.5"/>
  <path class="cls-1" d="M2317.6,231.8c1.4-.3,2.2.7,2.3,1.9.2,1.7-.2,3.1-2.4,3.1-1.5,0-2.3-.7-2.4-1.9-.2-1.7.2-3.2,2.5-3"/>
  <path class="cls-1" d="M1920.4,582.5c-.4,1.3-.9,2-2.4,2-2.3,0-2.6-1.4-2.5-3.1.1-1.2.9-2,2.4-2,2.3,0,2.5,1.4,2.5,3"/>
  <path class="cls-1" d="M1442,458.5c.1,2.3-1.3,2.7-3,2.6-1.2-.1-2-.9-1.9-2.4,0-2.3,1.4-2.6,3.1-2.4,1.2.1,2.2.9,1.9,2.3"/>
  <path class="cls-1" d="M1814.5,769.4c-2.3.1-2.7-1.3-2.6-3,.1-1.2.9-2,2.4-1.9,2.3,0,2.6,1.4,2.5,3.1-.1,1.2-.9,2.2-2.3,1.9"/>
  <path class="cls-1" d="M2633.2,229.3c-2.3.1-2.7-1.3-2.6-3,.1-1.2.9-2,2.4-1.9,2.3,0,2.6,1.4,2.5,3.1-.1,1.2-.9,2.2-2.3,1.9"/>
  <path class="cls-1" d="M1886,774.3c-2.3.1-2.7-1.3-2.5-3,.1-1.2.9-2,2.4-1.9,2.3,0,2.6,1.4,2.5,3.1-.1,1.2-.9,2.2-2.3,1.9"/>
  <path class="cls-1" d="M1895.9,776.8c-2.3.1-2.7-1.3-2.6-3,.1-1.2.9-2,2.4-1.9,2.3,0,2.6,1.4,2.4,3.1-.1,1.2-.9,2.2-2.3,1.9"/>
  <path class="cls-1" d="M1632.4,567.1c1.3.4,2,.9,2,2.4,0,2.3-1.4,2.6-3.1,2.5-1.2-.1-2-.9-2-2.4,0-2.3,1.4-2.5,3-2.5"/>
  <path class="cls-1" d="M70.9,217.5c-.4,1.3-.9,2-2.4,2-2.3,0-2.6-1.4-2.5-3.1.1-1.2.9-2,2.4-2,2.3,0,2.5,1.4,2.5,3"/>
  <path class="cls-1" d="M232.5,120.8c1.9,2.4,1.8,4.8.1,7.3-4-2.4-4-4.8-.1-7.3"/>
  <path class="cls-1" d="M1439.5,451.4c.3,1.4-.7,2.2-1.9,2.3-1.7.2-3.1-.2-3.1-2.4,0-1.5.7-2.3,1.9-2.4,1.7-.2,3.2.2,3,2.6"/>
  <path class="cls-1" d="M2164.6,451.8c-.4,1.3-.9,2-2.4,2-2.3,0-2.6-1.4-2.5-3.1.1-1.2.9-2,2.4-2,2.3,0,2.5,1.4,2.5,3"/>
  <path class="cls-1" d="M1899.6,197.9c-1.9-3.2-1.8-5.4,0-8.9,1,2.2,1.7,3.9,2.2,4.9-.3.5-1.1,2.1-2.2,4"/>
  <path class="cls-1" d="M1266.9,836.1c.3,1.4-.7,2.2-1.9,2.3-1.7.2-3.1-.2-3.1-2.4,0-1.5.7-2.3,1.9-2.4,1.7-.2,3.2.2,3,2.6"/>
  <path class="cls-1" d="M1307.4,790.9c-3.9.8-5.9,1.3-5.9-1.8,0-.7.5-1.4.8-2,1.4,1,2.8,2.1,5.2,3.8"/>
  <path class="cls-1" d="M2746,569.6c1.6,0,3.2.1,3,2.4,0,.7-.5,1.4-.7,2.1-1.4-1.1-2.8-2.1-4.2-3.2.6-.4,1.2-.8,1.9-1.2"/>
  <path class="cls-1" d="M1887.6,759.5c1.6,0,3.1,0,3.2,2.1,0,1.2-.4,2.8-1.3,2.6-1.3-.2-1.7-2.3-3.6-2.4-.4,0,.6-1.8,1.7-2.3"/>
  <path class="cls-1" d="M1658,234.6c1.2,1.2,2.3,2.2,3.5,3.3-1,.4-2.1,1.2-3,1.1-2.2-.2-2.1-2-1.8-3.5,0-.4,1-.7,1.4-.9"/>
  <path class="cls-1" d="M1652.5,240.8c.6.6,1.1.9,1.1,1.2,0,2.2,1.2,4.6-1.1,6.3-.2.2-1.1,0-1.1,0,0-2,0-3.9,0-5.9,0-.3.4-.6,1.1-1.7"/>
  <path class="cls-1" d="M2029.7,597.3c1.3,3.7,4.2,3.9,3.4,6.2-.2.5-2.2.9-3,.6-2.6-.9-.9-2.8-.4-6.8"/>
  <path class="cls-1" d="M1098,367.3c1.9,2.6,1.9,5,0,7.6-1.9-2.6-1.9-5.1,0-7.6"/>
  <path class="cls-1" d="M1433.5,512.9c-1.1-.6-1.5-1.6-1.4-2.8.2-2.1,1.7-2.3,3.2-2,.6,0,1.2.8,1.7,1.3-1.2,1.2-2.4,2.4-3.6,3.6"/>
  <path class="cls-1" d="M159.7,69c2.2,0,2.5,1.5,2.3,3.1,0,.7-.8,1.2-1.2,1.9-1.1-1.4-2.1-2.8-3.2-4.2.7-.2,1.4-.5,2.1-.8"/>
  <path class="cls-1" d="M1887.1,54.1c1.9,2.6,1.9,5.1,0,7.6-1.9-2.6-1.9-5.1,0-7.6"/>
  <path class="cls-1" d="M942,349.3c1.5,2.4,3.8,2.9,3.7,5,0,.3-1.3.8-2,.8-3,0-2.6-2.1-1.8-5.8"/>
  <path class="cls-1" d="M169.5,48.5c0,1.6,0,3.2-2.1,3.2-1,0-1.9-.8-2.9-1.2,1.2-1.2,2.4-2.4,3.6-3.5.4.5.9,1.1,1.3,1.6"/>
  <path class="cls-1" d="M1533.2,648.5c3.3-.1,6.2,0,4.2,4.8-2.1-1.2-3.9-2.4-4.2-4.8"/>
  <path class="cls-1" d="M2312.6,662.2c.5-.6.9-1.2,1.5-1.6,1-.7,1.7-3.2,3.2-.8.4.6,0,2.5-.8,3.1-.6.6-2.1.3-3.1.2-.3,0-.6-.5-.8-.8"/>
  <path class="cls-1" d="M2036.3,501.2c0-1.6.1-3.2,2.4-3,.7,0,1.4.5,2.1.7-1.1,1.4-2.1,2.8-3.2,4.2-.4-.6-.8-1.2-1.2-1.9"/>
  <path class="cls-1" d="M2621.4,681.3c3.3-.1,6.2,0,4.2,4.8-2.1-1.2-3.9-2.4-4.2-4.8"/>
  <path class="cls-1" d="M89.4,318c-.6-.5-1.2-.9-1.6-1.5-.7-1-3.2-1.7-.8-3.2.6-.4,2.5,0,3.1.8.6.6.3,2.1.2,3.1,0,.3-.5.6-.8.8"/>
  <path class="cls-1" d="M1785.9,853.3c.6.5,1.2.9,1.6,1.5.7,1,3.2,1.7.8,3.2-.6.4-2.5,0-3.1-.8-.6-.6-.3-2.1-.2-3.1,0-.3.5-.6.8-.8"/>
  <path class="cls-1" d="M588.9,468.6c-.5.9-1,2.2-1.2,2.1-2-.5-1.3-2.1-1.5-3.5-.2-1.2.2-1.8,1.1-1.1.8.6,1.1,1.7,1.5,2.5"/>
  <path class="cls-1" d="M1442,489.5c1.7-1.8,3.3-1.8,5,0-1.7,1.8-3.3,1.8-5,0"/>
  <path class="cls-1" d="M2753.8,492.5c-1.1.2-2.1.8-3.1.6-1.1-.1-2.1-1-1.6-2.3,0-.2,1.4,0,2.2,0,1.2-.1,2,.3,2.5,1.8"/>
  <path class="cls-1" d="M1897,39.4c-1.8-1.7-1.8-3.3,0-5,1.8,1.7,1.8,3.3,0,5"/>
  <path class="cls-1" d="M2148.5,503.1c-1.8-1.7-1.8-3.3,0-5,1.8,1.7,1.8,3.3,0,5"/>
  <path class="cls-1" d="M1840.3,833.5c1.8,1.7,1.8,3.3,0,5-1.8-1.7-1.8-3.3,0-5"/>
  <path class="cls-1" d="M1870.7,810.4c-.8,1.4-2.2.9-3.3.8-.3,0-1-1.2-.9-1.5.6-1.4,2.1-.9,3.1-.8.4,0,.7,1,1,1.5"/>
  <path class="cls-1" d="M1899.5,789.1c-1.8-1.7-1.8-3.3,0-5,1.8,1.7,1.8,3.3,0,5"/>
  <path class="cls-1" d="M47.4,221.9c1.8,1.7,1.8,3.3,0,5-1.8-1.7-1.8-3.3,0-5"/>
  <path class="cls-1" d="M1535,510.6c.2,1,.8,2.1.6,3.1-.1,1.1-1,2.1-2.3,1.6-.2,0,0-1.4,0-2.2-.1-1.2.3-2,1.8-2.5"/>
  <path class="cls-1" d="M2020.3,229.3c-1.8-1.7-1.8-3.3,0-5,1.8,1.7,1.8,3.3,0,5"/>
  <path class="cls-1" d="M2734.1,238.5c-1,.2-2.1.8-3.1.6-1.1-.1-2.1-1-1.6-2.3,0-.2,1.4,0,2.2,0,1.2-.1,2,.3,2.5,1.8"/>
  <path class="cls-1" d="M2414.9,525.2c1.8,1.7,1.8,3.3,0,5-1.8-1.7-1.8-3.3,0-5"/>
  <path class="cls-1" d="M2036,531.1c0,0-.5,1.3-.7,1.2-2-.5-1.3-2.2-1.5-3.5-.2-1.2.1-1.7,1.2-1.1,1,.5,1.7,1.5,1,3.4"/>
  <path class="cls-1" d="M2506.1,453.7c1.8,1.7,1.8,3.3,0,5-1.8-1.7-1.8-3.3,0-5"/>
  <path class="cls-1" d="M1962.3,702.8c-.3.7-.5,1.9-.9,1.9-1.5.2-1.8-.8-1.6-2,.1-.7.4-1.9.8-2,1.4-.2,1.7.8,1.6,2"/>
  <path class="cls-1" d="M1957.4,690.4c.1,1.2-.2,2.3-1.6,2-.4,0-.7-1.2-.8-2-.2-1.2.1-2.3,1.6-2,.4,0,.6,1.3.9,1.9"/>
  <path class="cls-1" d="M2369.7,687.6c-1,.2-2.1.8-3.1.6-1.1-.1-2.1-1-1.6-2.3,0-.2,1.4,0,2.2,0,1.2-.1,2,.3,2.5,1.8"/>
  <path class="cls-1" d="M1932.8,564.7c-1.2.1-2.3-.2-2-1.6,0-.4,1.2-.7,1.9-.8,1.2-.2,2.3.1,2,1.6,0,.4-1.3.6-1.9.9"/>
  <path class="cls-1" d="M1968.5,685.5c1.8,1.7,1.8,3.3,0,5-1.8-1.7-1.8-3.3,0-5"/>
  <path class="cls-1" d="M2030.2,300.9c-1.8-1.7-1.8-3.3,0-5,1.8,1.7,1.8,3.3,0,5"/>
  <path class="cls-1" d="M2326.4,663.7c1.4.8.9,2.2.8,3.3,0,.3-1.2,1-1.5.9-1.4-.6-.9-2.1-.8-3.1,0-.4,1-.7,1.5-1"/>
  <path class="cls-1" d="M2286.6,330.4c1.8,1.7,1.8,3.3,0,5-1.8-1.7-1.8-3.3,0-5"/>
  <path class="cls-1" d="M2335.2,658c0,0-.5,1.3-.7,1.2-2-.5-1.3-2.2-1.5-3.5-.2-1.2.1-1.7,1.2-1.1,1,.5,1.7,1.5,1,3.4"/>
  <path class="cls-1" d="M1980.8,658.4c-1.8-1.7-1.8-3.3,0-5,1.8,1.7,1.8,3.3,0,5"/>
  <path class="cls-1" d="M842.7,414.2c.1,1.2-.2,2.3-1.6,2-.4,0-.7-1.2-.8-1.9-.2-1.2.1-2.3,1.6-2,.4,0,.6,1.3.9,1.9"/>
  <path class="cls-1" d="M2331.2,653.5c-1.6-1-1.7-2.4-1.1-3.9.4-1,1.2-1.2,1.6-.4.4,1,.4,2.1.7,3.2.3,1.2,0,1.5-1.1,1.2"/>
  <path class="cls-1" d="M1034.4,335.5c.2,1,.8,2.1.6,3.1-.1,1.1-1,2.1-2.3,1.6-.2,0,0-1.4,0-2.2-.1-1.2.3-2,1.8-2.5"/>
  <path class="cls-1" d="M1098.1,397c-1.6-1-1.7-2.4-1.1-3.9.4-1,1.2-1.2,1.6-.4.4,1,.4,2.1.7,3.2.3,1.2,0,1.5-1.1,1.2"/>
  <path class="cls-1" d="M1666.1,647c0,0-.5,1.3-.7,1.2-2-.5-1.3-2.2-1.5-3.5-.2-1.2.1-1.7,1.2-1.1,1,.5,1.7,1.5,1,3.4"/>
  <path class="cls-1" d="M1219.1,648.2c-.5-.3-1.4-.6-1.5-1,0-1.1-.6-2.5.8-3.1.3-.1,1.5.5,1.5.9,0,1.1.6,2.4-.8,3.3"/>
  <path class="cls-1" d="M1524.9,394.2c-.5-.3-1.4-.6-1.5-1,0-1.1-.6-2.5.8-3.1.3-.1,1.5.5,1.5.9,0,1.1.6,2.4-.8,3.3"/>
  <path class="cls-1" d="M1098.3,355.4c1.4.8.9,2.2.8,3.3,0,.3-1.2,1-1.5.9-1.4-.6-.9-2.1-.8-3.1,0-.4,1-.7,1.5-1"/>
  <path class="cls-1" d="M2027.7,636.2c1.8,1.7,1.8,3.3,0,5-1.8-1.7-1.8-3.3,0-5"/>
  <path class="cls-1" d="M412.4,641.2c-1.8-1.7-1.8-3.3,0-5,1.8,1.7,1.8,3.3,0,5"/>
  <path class="cls-1" d="M2709.6,632.5c-.5.3-1.1.6-1.7.8-.2,0-.5-.5-.8-.8.5-.3,1.1-.6,1.6-.8.2,0,.5.5.8.8"/>
  <path class="cls-1" d="M1532,367.4c.3.5.6,1.1.8,1.7,0,.2-.5.5-.8.8-.3-.5-.6-1.1-.8-1.6,0-.2.5-.5.8-.8"/>
  <path class="cls-1" d="M2031.4,590.5c-.5.4-1.1,1.2-1.4,1.1-1-.3-1.1-1-.5-1.5.6-.3,1.3-.5,1.9-.7v1.1"/>
  <path class="cls-1" d="M1200.1,659.8c-.3.3-.7.8-.8.8-.5-.3-1.2-.6-1.5-1.1-.5-1,0-1.5,1-1,.5.2.8.9,1.2,1.4"/>
  <path class="cls-1" d="M1201.9,431.9c.3.3.6.6.9.9-.6.3-1.1.6-1.7.8-.2,0-.5-.5-.8-.8.5-.3,1.1-.6,1.6-.9"/>
  <path class="cls-1" d="M2101.3,672.8c-.3-.3-.6-.6-.9-.9.5-.3,1.1-.6,1.7-.8.2,0,.5.5.8.8-.5.3-1.1.6-1.6.9"/>
  <path class="cls-1" d="M927.8,680.6c.3.5.6,1.1.8,1.7,0,.2-.5.5-.8.8-.3-.5-.6-1.1-.8-1.6,0-.2.5-.5.8-.8"/>
  <path class="cls-1" d="M2740.4,564.7c.3.5.6,1.1.8,1.7,0,.2-.5.5-.8.8-.3-.5-.6-1.1-.8-1.6,0-.2.5-.5.8-.8"/>
  <path class="cls-1" d="M1303.5,563.8c-.3.3-.6.6-.9.9-.3-.6-.6-1.1-.8-1.7,0-.2.5-.5.8-.8.3.5.6,1.1.9,1.6"/>
  <path class="cls-1" d="M1634,438c-.3.3-.6.6-.9.9-.3-.6-.6-1.1-.8-1.7,0-.2.5-.5.8-.8.3.5.6,1.1.9,1.6"/>
  <path class="cls-1" d="M2156.3,545.3c.3.3.6.6.9.9-.6.3-1.1.6-1.7.8-.2,0-.5-.5-.8-.8.5-.3,1.1-.6,1.6-.9"/>
  <path class="cls-1" d="M2744.1,532.1c-.3.3-.7.8-.8.8-.5-.3-1.2-.6-1.5-1.1-.5-1,0-1.5,1-1,.5.2.8.9,1.2,1.4"/>
  <path class="cls-1" d="M1898.2,736.1c-.5.3-1.1.6-1.7.8-.2,0-.5-.5-.8-.8.5-.3,1.1-.6,1.6-.8.2,0,.5.5.8.8"/>
  <path class="cls-1" d="M1046.5,552.1c-.2.2-1.3,1.3-2.9,2.9-1.4-2.5-1.6-4.7.3-8.3,1,2,1.8,3.7,2.6,5.4"/>
  <path class="cls-1" d="M1039.1,500.9c1.4.8.9,2.2.8,3.3,0,.3-1.2,1-1.5.9-1.4-.6-.9-2.1-.8-3.1,0-.4,1-.7,1.5-1"/>
  <path class="cls-1" d="M1042.5,446.4c-.2.6-.4,1.8-.8,1.9-1.5.3-1.8-.8-1.6-2,.1-.7.5-1.9.8-1.9,1.4-.2,1.7.8,1.6,2.1"/>
  <path class="cls-1" d="M1037.6,466c.1,1.2-.2,2.3-1.6,2-.4,0-.7-1.2-.8-1.9-.2-1.2.1-2.3,1.6-2,.4,0,.6,1.3.9,1.9"/>
  <path class="cls-1" d="M1037.2,429.9c-.3.5-.6,1-.9,1.6-.3-.3-.8-.6-.8-.8.1-.6.5-1.1.8-1.7.3.3.6.6.9.9"/>
  <path class="cls-1" d="M946.4,480.9c-2.3.1-2.7-1.3-2.5-3,.1-1.2.9-2,2.4-1.9,2.3,0,2.6,1.4,2.5,3.1-.1,1.2-.9,2.2-2.3,1.9"/>
  <path class="cls-1" d="M941,461.1c2.1.1,2.8.8,2.9,2.2.2,2.9-1.7,2.8-3.8,2.8-2.3,0-1-1.6-1.1-2.4-.3-2,1-2.6,2-2.6"/>
  <path class="cls-1" d="M949.3,448.8c1.3.4,2,.9,2,2.4,0,2.3-1.4,2.6-3.1,2.5-1.2-.1-2-.9-2-2.4,0-2.3,1.4-2.5,3-2.5"/>
  <path class="cls-1" d="M954.9,483.3c.3.5.6,1.1.8,1.7,0,.2-.5.5-.8.8-.3-.5-.6-1.1-.8-1.6,0-.2.5-.5.8-.8"/>
  <path class="cls-1" d="M651.3,508.3c.5.3,1,.6,1.6.9-.3.3-.6.8-.8.8-.6-.1-1.1-.5-1.7-.8.3-.3.6-.6.9-.9"/>
  <path class="cls-1" d="M260.8,209.2c-.1,2.1-.8,2.8-2.2,2.9-2.9.2-2.8-1.7-2.8-3.8,0-2.3,1.6-1,2.4-1.1,2-.3,2.6,1,2.6,2"/>
  <path class="cls-1" d="M269.9,259c.2,1.1.8,2.1.6,3.1-.1,1.1-1,2.1-2.3,1.6-.2,0,0-1.4,0-2.2-.1-1.2.3-2,1.8-2.5"/>
  <path class="cls-1" d="M751.1,492.3c-.8,1.4-2.2.9-3.3.8-.3,0-1-1.2-.9-1.5.6-1.4,2.1-.9,3.1-.8.4,0,.7,1,1,1.5"/>
  <path class="cls-1" d="M1913,290.8c.1,2.3-1.3,2.7-3,2.6-1.2-.1-2-.9-1.9-2.4,0-2.3,1.4-2.6,3.1-2.4,1.2.1,2.2.9,1.9,2.3"/>
  <path class="cls-1" d="M1918,280.6c0,1.6-.2,3-2.5,3-1.5,0-2.3-.7-2.4-2-.2-1.7.2-3.1,2.5-3.1,1.5,0,2.1.7,2.4,2"/>
  <path class="cls-1" d="M1897.6,308c1,3.3.7,5.5,0,7.8-4.5-2.6-4.4-5.1,0-7.8"/>
  <path class="cls-1" d="M1887.1,340.3c1.8,1.7,1.8,3.3,0,5-1.8-1.7-1.8-3.3,0-5"/>
  <path class="cls-1" d="M1834.1,533.4c-1,3.6-4,1.2-6.1,1.6-.9.2-1.6-1.7-1.3-2.9,1-3.5,4-1.6,6-1.8,1,0,1.5,1.6,1.3,3.1"/>
  <path class="cls-1" d="M1839.3,269.7c-.8.8-1.4,1.4-1.9,1.9-1.3,1.5-2.8,2.9-4.9,1.5-.5-.3-.8-1.3-.8-2,0-3.2,2.5-2.3,4.3-2.3,1,0,2.1.6,3.3.9"/>
  <path class="cls-1" d="M2297.7,458.7c3.7-.2,2.1-3.1,2.5-4.9,2.6,0,6-.7,4.7,3.9-.3,1-2,1.7-2.1,2.6,0,2.5-.9,3.9-3.4,3.3-2.7-.7-1.4-3.1-1.7-4.9"/>
  <path class="cls-1" d="M2292.8,554.8c0-1.6,0-3.1,0-4.7,0-2,.9-2.8,2.8-2.7,2.2.1,1.9,1.8,2.2,3.3.6,4.3-2,4.4-5,4.1"/>
  <path class="cls-1" d="M2305.1,505c0,1.6-.2,3-2.5,3-1.5,0-2.3-.7-2.4-2-.2-1.7.2-3.1,2.5-3.1,1.5,0,2.1.7,2.4,2"/>
  <path class="cls-1" d="M2308.1,596.8c-1.6,0-3-.2-3-2.5,0-1.5.7-2.3,2-2.4,1.7-.2,3.1.2,3.1,2.5,0,1.5-.7,2.1-2,2.4"/>
  <path class="cls-1" d="M2333.8,439.3c1.4.8.9,2.2.8,3.3,0,.3-1.2,1-1.5.9-1.4-.6-.9-2.1-.8-3.1,0-.4,1-.7,1.5-1"/>
  <path class="cls-1" d="M2613.5,454.3c-.2,1.2-.1,2.5-.6,3.5-.6,1.5-2.5,1.3-3.2.8-2-1.6-2-8.1,0-9.7.6-.5,2.6-.7,3.1.8.5,1.5.4,3.1.6,4.6"/>
  <path class="cls-1" d="M2611.4,424.1c-1.6,0-3-.2-3-2.5,0-1.5.7-2.3,1.9-2.4,1.7-.2,3.1.2,3.1,2.5,0,1.5-.7,2.1-2,2.4"/>
  <path class="cls-1" d="M2605.6,527.7c2.1.1,2.8.8,2.9,2.2.2,2.9-1.7,2.8-3.8,2.8-2.3,0-1-1.6-1.1-2.4-.3-2,1-2.6,2-2.6"/>
</svg>